<?xml version="1.0" encoding="UTF-8" standalone="no"?>
<!-- Created with Inkscape (http://www.inkscape.org/) -->

<svg
   xmlns:dc="http://purl.org/dc/elements/1.1/"
   xmlns:cc="http://creativecommons.org/ns#"
   xmlns:rdf="http://www.w3.org/1999/02/22-rdf-syntax-ns#"
   xmlns:svg="http://www.w3.org/2000/svg"
   xmlns="http://www.w3.org/2000/svg"
   xmlns:sodipodi="http://sodipodi.sourceforge.net/DTD/sodipodi-0.dtd"
   xmlns:inkscape="http://www.inkscape.org/namespaces/inkscape"
   width="744.09448819"
   height="1052.3622047"
   id="svg2"
   version="1.1"
   inkscape:version="0.47 r22583"
   sodipodi:docname="icon.svg"
   inkscape:export-filename="D:\qtcast_write\trunk\icons\icon.png"
   inkscape:export-xdpi="95.970085"
   inkscape:export-ydpi="95.970085">
  <defs
     id="defs4">
    <inkscape:perspective
       sodipodi:type="inkscape:persp3d"
       inkscape:vp_x="0 : 526.18109 : 1"
       inkscape:vp_y="0 : 1000 : 0"
       inkscape:vp_z="744.09448 : 526.18109 : 1"
       inkscape:persp3d-origin="372.04724 : 350.78739 : 1"
       id="perspective10" />
    <inkscape:perspective
       id="perspective2824"
       inkscape:persp3d-origin="0.5 : 0.33333333 : 1"
       inkscape:vp_z="1 : 0.5 : 1"
       inkscape:vp_y="0 : 1000 : 0"
       inkscape:vp_x="0 : 0.5 : 1"
       sodipodi:type="inkscape:persp3d" />
    <inkscape:perspective
       id="perspective2838"
       inkscape:persp3d-origin="0.5 : 0.33333333 : 1"
       inkscape:vp_z="1 : 0.5 : 1"
       inkscape:vp_y="0 : 1000 : 0"
       inkscape:vp_x="0 : 0.5 : 1"
       sodipodi:type="inkscape:persp3d" />
    <inkscape:perspective
       id="perspective2870"
       inkscape:persp3d-origin="85.761841 : 68.349772 : 1"
       inkscape:vp_z="171.52368 : 102.52466 : 1"
       inkscape:vp_y="0 : 1000 : 0"
       inkscape:vp_x="0 : 102.52466 : 1"
       sodipodi:type="inkscape:persp3d" />
  </defs>
  <sodipodi:namedview
     id="base"
     pagecolor="#ffffff"
     bordercolor="#666666"
     borderopacity="1.0"
     inkscape:pageopacity="0.0"
     inkscape:pageshadow="2"
     inkscape:zoom="0.7"
     inkscape:cx="381.6932"
     inkscape:cy="697.56237"
     inkscape:document-units="px"
     inkscape:current-layer="layer1"
     showgrid="false"
     inkscape:window-width="897"
     inkscape:window-height="723"
     inkscape:window-x="68"
     inkscape:window-y="-3"
     inkscape:window-maximized="0" />
  <metadata
     id="metadata7">
    <rdf:RDF>
      <cc:Work
         rdf:about="">
        <dc:format>image/svg+xml</dc:format>
        <dc:type
           rdf:resource="http://purl.org/dc/dcmitype/StillImage" />
        <dc:title></dc:title>
      </cc:Work>
    </rdf:RDF>
  </metadata>
  <g
     inkscape:label="Layer 1"
     inkscape:groupmode="layer"
     id="layer1">
    <g
       id="layer1-4"
       transform="matrix(1.117201,0,0,1.117201,102.3946,327.83813)">
      <g
         id="g2396"
         transform="translate(432,-133)">
        <path
           style="fill:#7cc040"
           id="path2400"
           d="m -378.33328,299.25358 -7.26184,-6.67711 0.0118,-84.71249 c 0.0117,-83.62609 0.0388,-84.78455 2.11435,-90.33196 4.43707,-11.85913 11.10713,-15.89306 27.89749,-16.87189 10.06981,-0.58704 13.18358,-0.16957 76,10.18948 l 65.5,10.8016 0,69.96263 c 0,53.90228 -0.29319,70.92859 -1.27722,74.17058 -1.56788,5.16554 -6.72925,12.10273 -10.73743,14.43174 -1.98699,1.15457 -26.06029,5.60398 -71.98535,13.30489 -37.95,6.36361 -69.9,11.75908 -71,11.98992 -1.4051,0.29487 -4.16003,-1.56638 -9.26184,-6.25739 z m 91.38684,-23.17711 c 2.25641,0 2.375,-0.32456 2.375,-6.5 0,-5.78113 -0.21599,-6.5 -1.95295,-6.5 -3.70388,0 -6.85214,-2.24136 -8.60347,-6.12513 -0.96609,-2.14239 -1.57361,-4.03559 -1.35005,-4.2071 0.22356,-0.17151 2.53288,-1.52939 5.13182,-3.01751 12.90306,-7.38812 18.68728,-23.96169 18.72409,-53.65026 0.0443,-35.70973 -8.94704,-52.63835 -30.26591,-56.98381 -6.70354,-1.3664 -14.30708,-0.63312 -20.27292,1.95511 -8.91148,3.86617 -15.69871,14.21474 -19.03883,29.0287 -2.37545,10.5355 -2.34662,39.37509 0.0505,50.5 3.51644,16.31976 11.81536,28.41254 21.77764,31.7333 3.68933,1.22977 4.20364,1.83831 5.7544,6.80859 2.41185,7.73016 4.56676,11.48088 8.00116,13.92639 3.43513,2.44602 10.23575,4.07656 14.41955,3.45728 1.58125,-0.23406 3.94375,-0.42556 5.25,-0.42556 z m -22.60906,-37.30473 c -3.04896,-1.52007 -6.70937,-6.83665 -7.98395,-11.59631 -4.16759,-15.56307 -3.81851,-54.0943 0.58989,-65.11198 2.00113,-5.00129 6.62237,-8.98698 10.42005,-8.98698 4.20244,0 9.48751,5.06719 11.45111,10.97905 3.47238,10.45434 4.05746,45.54877 1.00529,60.29934 -2.42686,11.72859 -8.85965,17.71867 -15.48239,14.41688 z m 66.98406,7.25641 c 9.46242,-2.10155 10,-2.56605 10,-8.64039 0,-4.71812 -0.23391,-5.37657 -1.75,-4.92617 -5.99778,1.78186 -7.39498,1.79365 -9.29029,0.0784 -1.84998,-1.6742 -1.95971,-3.22064 -1.95971,-27.61852 l 0,-25.84501 6,0 6,0 0,-5.87083 0,-5.87084 -6,-0.67882 -6,-0.67882 0,-9.39133 c 0,-5.16523 -0.3375,-9.59681 -0.75,-9.84796 -0.4125,-0.25114 -2.9657,-0.6152 -5.67377,-0.80901 l -4.92378,-0.35239 -1.71558,7 c -0.94357,3.85 -1.99895,8.2375 -2.34528,9.75 -0.53873,2.35272 -1.13256,2.75 -4.11064,2.75 l -3.48095,0 0,6.5 0,6.5 3,0 3,0 0,29.03984 c 0,35.48318 0.3987,36.84529 11.5,39.28807 3.19245,0.70248 3.75518,0.67757 8.5,-0.37623 z" />
        <path
           style="fill:#016123"
           id="path2398"
           d="m -378.85274,298.29747 -5.7187,-5.77899 0,-85.35499 c 0,-61.88383 0.31913,-86.42015 1.16056,-89.22858 1.48069,-4.94212 6.97518,-11.37688 11.82873,-13.85298 2.07592,-1.05905 6.86507,-2.17885 10.64255,-2.48844 5.07942,-0.41629 6.2698,-0.30029 4.57064,0.4454 -4.94565,2.17044 -9.27463,6.48477 -11.92778,11.88743 l -2.7747,5.65015 -0.27987,92.25 c -0.15393,50.7375 -0.61802,92.25 -1.03131,92.25 -0.41328,0 -3.32484,-2.60055 -6.47012,-5.779 z m 71.06515,-22.41569 c -4.72952,-1.25739 -9.9682,-6.99399 -12.23849,-13.40172 -0.95556,-2.69697 -2.09542,-5.83025 -2.53302,-6.96284 -0.47618,-1.23245 -2.41587,-2.54468 -4.83102,-3.26828 -8.94116,-2.67884 -17.28444,-14.70117 -20.9091,-30.1292 -2.60283,-11.07867 -2.53035,-44.63455 0.1178,-54.54327 4.04993,-15.15377 11.74578,-24.97801 21.93753,-28.00463 6.56814,-1.95053 10.5804,-1.83637 4.99668,0.14217 -9.40476,3.33248 -16.3244,12.40347 -20.51453,26.89258 -2.09438,7.24219 -2.29813,9.88728 -2.23155,28.96988 0.0632,18.12683 0.36179,22.04722 2.18212,28.65411 4.10071,14.88354 10.26665,23.43542 20.10186,27.88038 4.5157,2.04084 5.29584,2.83845 6.25298,6.39301 2.27779,8.45903 6.80455,14.60181 12.68316,17.21094 2.15525,0.95658 2.29719,1.19465 0.70173,1.17699 -1.1,-0.0122 -3.67227,-0.46673 -5.71615,-1.01012 z m 47.30981,-30.11175 c -7.88148,-2.76162 -9.09366,-8.3944 -9.09366,-42.25673 0,-22.83622 -0.16216,-25.32156 -1.67124,-25.61351 -1.16362,-0.22511 -2.03969,-2.14578 -2.88427,-6.32332 -0.66716,-3.3 -1.01354,-6.3375 -0.76974,-6.75 0.24381,-0.4125 1.54173,-0.75 2.88427,-0.75 2.3555,0 2.44098,0.24513 2.44098,7 l 0,7 2.94445,0 2.94446,0 0.30554,29.25 c 0.33915,32.46628 0.5938,33.82092 7.1041,37.79048 2.49688,1.52244 2.76129,1.94044 1.20145,1.89934 -1.1,-0.029 -3.53285,-0.58981 -5.40634,-1.24626 z m -45.8338,-9.44356 c 5.64105,-5.88938 7.74014,-16.98166 7.74014,-40.90141 0,-22.89925 -2.73061,-35.94521 -8.34695,-39.87905 -2.03937,-1.42843 -2.01168,-1.46954 0.98958,-1.46954 10.23612,0 14.05235,14.15285 13.07774,48.5 -0.54192,19.09814 -1.79461,26.63129 -5.32436,32.01836 -1.6232,2.47731 -5.48286,4.48164 -8.63015,4.48164 -2.06696,0 -2.05009,-0.0939 0.494,-2.75 z m 65.24014,-4.25 c 1.1,-0.47269 3.35,-0.85943 5,-0.85943 2.55762,0 2.70508,0.12673 1,0.85943 -1.1,0.47269 -3.35,0.85943 -5,0.85943 -2.55762,0 -2.70508,-0.12673 -1,-0.85943 z m -26.20254,-69.25 c 4.3707,-19.12226 3.82937,-17.75 7.00201,-17.75 2.53638,0 2.85533,0.30004 2.35456,2.215 -0.31858,1.21824 -1.33616,5.71824 -2.26129,10 -1.63858,7.58382 -1.75864,7.785 -4.6458,7.785 -2.55924,0 -2.89356,-0.3071 -2.44948,-2.25 z" />
      </g>
    </g>
    <g
       transform="matrix(1.117201,0,0,1.117201,102.3946,327.83813)"
       id="g2877">
      <g
         transform="translate(432,-133)"
         id="g2879">
        <path
           d="m -378.33328,299.25358 -7.26184,-6.67711 0.0118,-84.71249 c 0.0117,-83.62609 0.0388,-84.78455 2.11435,-90.33196 4.43707,-11.85913 11.10713,-15.89306 27.89749,-16.87189 10.06981,-0.58704 13.18358,-0.16957 76,10.18948 l 65.5,10.8016 0,69.96263 c 0,53.90228 -0.29319,70.92859 -1.27722,74.17058 -1.56788,5.16554 -6.72925,12.10273 -10.73743,14.43174 -1.98699,1.15457 -26.06029,5.60398 -71.98535,13.30489 -37.95,6.36361 -69.9,11.75908 -71,11.98992 -1.4051,0.29487 -4.16003,-1.56638 -9.26184,-6.25739 z m 91.38684,-23.17711 c 2.25641,0 2.375,-0.32456 2.375,-6.5 0,-5.78113 -0.21599,-6.5 -1.95295,-6.5 -3.70388,0 -6.85214,-2.24136 -8.60347,-6.12513 -0.96609,-2.14239 -1.57361,-4.03559 -1.35005,-4.2071 0.22356,-0.17151 2.53288,-1.52939 5.13182,-3.01751 12.90306,-7.38812 18.68728,-23.96169 18.72409,-53.65026 0.0443,-35.70973 -8.94704,-52.63835 -30.26591,-56.98381 -6.70354,-1.3664 -14.30708,-0.63312 -20.27292,1.95511 -8.91148,3.86617 -15.69871,14.21474 -19.03883,29.0287 -2.37545,10.5355 -2.34662,39.37509 0.0505,50.5 3.51644,16.31976 11.81536,28.41254 21.77764,31.7333 3.68933,1.22977 4.20364,1.83831 5.7544,6.80859 2.41185,7.73016 4.56676,11.48088 8.00116,13.92639 3.43513,2.44602 10.23575,4.07656 14.41955,3.45728 1.58125,-0.23406 3.94375,-0.42556 5.25,-0.42556 z m -22.60906,-37.30473 c -3.04896,-1.52007 -6.70937,-6.83665 -7.98395,-11.59631 -4.16759,-15.56307 -3.81851,-54.0943 0.58989,-65.11198 2.00113,-5.00129 6.62237,-8.98698 10.42005,-8.98698 4.20244,0 9.48751,5.06719 11.45111,10.97905 3.47238,10.45434 4.05746,45.54877 1.00529,60.29934 -2.42686,11.72859 -8.85965,17.71867 -15.48239,14.41688 z m 66.98406,7.25641 c 9.46242,-2.10155 10,-2.56605 10,-8.64039 0,-4.71812 -0.23391,-5.37657 -1.75,-4.92617 -5.99778,1.78186 -7.39498,1.79365 -9.29029,0.0784 -1.84998,-1.6742 -1.95971,-3.22064 -1.95971,-27.61852 l 0,-25.84501 6,0 6,0 0,-5.87083 0,-5.87084 -6,-0.67882 -6,-0.67882 0,-9.39133 c 0,-5.16523 -0.3375,-9.59681 -0.75,-9.84796 -0.4125,-0.25114 -2.9657,-0.6152 -5.67377,-0.80901 l -4.92378,-0.35239 -1.71558,7 c -0.94357,3.85 -1.99895,8.2375 -2.34528,9.75 -0.53873,2.35272 -1.13256,2.75 -4.11064,2.75 l -3.48095,0 0,6.5 0,6.5 3,0 3,0 0,29.03984 c 0,35.48318 0.3987,36.84529 11.5,39.28807 3.19245,0.70248 3.75518,0.67757 8.5,-0.37623 z"
           id="path2881"
           style="fill:#7cc040" />
        <path
           d="m -378.85274,298.29747 -5.7187,-5.77899 0,-85.35499 c 0,-61.88383 0.31913,-86.42015 1.16056,-89.22858 1.48069,-4.94212 6.97518,-11.37688 11.82873,-13.85298 2.07592,-1.05905 6.86507,-2.17885 10.64255,-2.48844 5.07942,-0.41629 6.2698,-0.30029 4.57064,0.4454 -4.94565,2.17044 -9.27463,6.48477 -11.92778,11.88743 l -2.7747,5.65015 -0.27987,92.25 c -0.15393,50.7375 -0.61802,92.25 -1.03131,92.25 -0.41328,0 -3.32484,-2.60055 -6.47012,-5.779 z m 71.06515,-22.41569 c -4.72952,-1.25739 -9.9682,-6.99399 -12.23849,-13.40172 -0.95556,-2.69697 -2.09542,-5.83025 -2.53302,-6.96284 -0.47618,-1.23245 -2.41587,-2.54468 -4.83102,-3.26828 -8.94116,-2.67884 -17.28444,-14.70117 -20.9091,-30.1292 -2.60283,-11.07867 -2.53035,-44.63455 0.1178,-54.54327 4.04993,-15.15377 11.74578,-24.97801 21.93753,-28.00463 6.56814,-1.95053 10.5804,-1.83637 4.99668,0.14217 -9.40476,3.33248 -16.3244,12.40347 -20.51453,26.89258 -2.09438,7.24219 -2.29813,9.88728 -2.23155,28.96988 0.0632,18.12683 0.36179,22.04722 2.18212,28.65411 4.10071,14.88354 10.26665,23.43542 20.10186,27.88038 4.5157,2.04084 5.29584,2.83845 6.25298,6.39301 2.27779,8.45903 6.80455,14.60181 12.68316,17.21094 2.15525,0.95658 2.29719,1.19465 0.70173,1.17699 -1.1,-0.0122 -3.67227,-0.46673 -5.71615,-1.01012 z m 47.30981,-30.11175 c -7.88148,-2.76162 -9.09366,-8.3944 -9.09366,-42.25673 0,-22.83622 -0.16216,-25.32156 -1.67124,-25.61351 -1.16362,-0.22511 -2.03969,-2.14578 -2.88427,-6.32332 -0.66716,-3.3 -1.01354,-6.3375 -0.76974,-6.75 0.24381,-0.4125 1.54173,-0.75 2.88427,-0.75 2.3555,0 2.44098,0.24513 2.44098,7 l 0,7 2.94445,0 2.94446,0 0.30554,29.25 c 0.33915,32.46628 0.5938,33.82092 7.1041,37.79048 2.49688,1.52244 2.76129,1.94044 1.20145,1.89934 -1.1,-0.029 -3.53285,-0.58981 -5.40634,-1.24626 z m -45.8338,-9.44356 c 5.64105,-5.88938 7.74014,-16.98166 7.74014,-40.90141 0,-22.89925 -2.73061,-35.94521 -8.34695,-39.87905 -2.03937,-1.42843 -2.01168,-1.46954 0.98958,-1.46954 10.23612,0 14.05235,14.15285 13.07774,48.5 -0.54192,19.09814 -1.79461,26.63129 -5.32436,32.01836 -1.6232,2.47731 -5.48286,4.48164 -8.63015,4.48164 -2.06696,0 -2.05009,-0.0939 0.494,-2.75 z m 65.24014,-4.25 c 1.1,-0.47269 3.35,-0.85943 5,-0.85943 2.55762,0 2.70508,0.12673 1,0.85943 -1.1,0.47269 -3.35,0.85943 -5,0.85943 -2.55762,0 -2.70508,-0.12673 -1,-0.85943 z m -26.20254,-69.25 c 4.3707,-19.12226 3.82937,-17.75 7.00201,-17.75 2.53638,0 2.85533,0.30004 2.35456,2.215 -0.31858,1.21824 -1.33616,5.71824 -2.26129,10 -1.63858,7.58382 -1.75864,7.785 -4.6458,7.785 -2.55924,0 -2.89356,-0.3071 -2.44948,-2.25 z"
           id="path2883"
           style="fill:#016123" />
      </g>
    </g>
    <g
       id="g2844"
       transform="matrix(1.4961552,0,0,1.4961552,-58.877951,-257.60755)">
      <path
         style="fill:#979797"
         d="m 261.78572,540.62286 c -15.09968,-2.67453 -30.31951,-8.50664 -37.02523,-14.18775 -7.20391,-6.10318 -9.55288,-13.42326 -7.46484,-23.26257 3.78346,-17.82847 23.46137,-29.16652 56.3135,-32.44681 5.47767,-0.54694 6.71033,-0.97603 6.25,-2.17564 -0.31539,-0.82189 -0.57343,-14.27605 -0.57343,-29.89815 l 0,-28.40381 -4.5,-1.13312 -4.5,-1.13311 0,-4.65904 c 0,-3.4698 0.52688,-5.11017 2.06411,-6.42639 2.04603,-1.75187 2.02193,-1.78977 -2.75,-4.32634 -4.30094,-2.2862 -7.84069,-5.05185 -16.41675,-12.82658 -1.99299,-1.80678 -2.76108,-3.70761 -3.27907,-8.11486 -0.49245,-4.19 -0.32854,-5.9853 0.60264,-6.60067 0.99009,-0.65431 0.8837,-1.0783 -0.47093,-1.87668 -2.04375,-1.20452 -2.28432,-3.99244 -0.5,-5.79429 1.00119,-1.01102 0.90166,-1.45882 -0.5,-2.24969 -1.8544,-1.04632 -2.44386,-4.88803 -0.75,-4.88803 0.55,0 1,-0.675 1,-1.5 0,-0.825 -0.45,-1.5 -1,-1.5 -0.55,0 -1,-1.125 -1,-2.5 0,-1.375 0.45,-2.5 1,-2.5 0.55,0 1,-0.675 1,-1.5 0,-0.825 -0.45,-1.5 -1,-1.5 -0.55,0 -1,-1.125 -1,-2.5 0,-1.375 0.45,-2.5 1,-2.5 0.55,0 1,-0.675 1,-1.5 0,-0.825 -0.45,-1.5 -1,-1.5 -1.59587,0 -1.1551,-4.7265 0.5,-5.36163 1.97718,-0.75871 1.92917,-2.63837 -0.0674,-2.63837 -1.16682,0 -1.38794,-0.57502 -0.86522,-2.25 0.3862,-1.2375 1.20402,-2.57469 1.81739,-2.97153 0.79906,-0.51698 0.81225,-1.20762 0.0465,-2.43611 -0.65915,-1.05752 -0.77493,-3.27192 -0.30214,-5.77846 0.4216,-2.23515 1.17518,-6.5389 1.67464,-9.5639 0.49945,-3.025 1.20516,-6.18093 1.56825,-7.01317 0.43039,-0.98653 -1.25965,-3.82607 -4.85596,-8.15876 -3.03386,-3.65507 -5.51189,-7.24914 -5.50673,-7.98683 0.019,-2.71879 6.18528,-11.99242 11.52367,-17.33081 13.22855,-13.22855 33.05239,-17.40283 53.70877,-11.30938 11.40024,3.36298 19.89219,10.04 28.55648,22.45332 1.21094,1.7349 2.19462,3.9849 2.18597,5 -0.009,1.0151 -3.43089,5.56759 -7.60499,10.11665 -5.47337,5.96504 -7.31272,8.61367 -6.59734,9.5 0.54556,0.67594 1.30697,3.13912 1.69201,5.47374 0.38504,2.33462 1.11092,4.49867 1.61306,4.80902 1.03639,0.64052 1.26926,56.56784 0.26601,63.88728 -0.50139,3.6581 -1.15718,4.91418 -2.91443,5.58229 -2.45697,0.93414 -2.94481,2.07147 -3.89332,9.07672 -0.80186,5.92217 -4.38354,9.42826 -12.17367,11.91675 -3.22938,1.03159 -5.3091,1.89983 -4.6216,1.9294 0.82493,0.0355 1.25,1.74209 1.25,5.0186 0,5.2629 -1.49494,7.03518 -5.93426,7.03518 -1.13616,0 -2.0747,0.5625 -2.08565,1.25 -0.0951,5.96898 -0.16045,48.51839 -0.0814,53 l 0.10135,5.75 4.30422,0 c 3.05166,0 5.66249,-0.86139 8.97169,-2.96003 2.56712,-1.62801 6.93022,-3.93342 9.69578,-5.12314 4.97332,-2.13946 6.43448,-4.44 3.52831,-5.5552 -2.43063,-0.93272 -1.71912,-3.26225 1.25,-4.09258 4.7665,-1.33297 27.30039,-0.35594 38.75,1.68015 6.05,1.07587 12.575,2.22227 14.5,2.54756 5.27065,0.89064 22.95574,6.52457 27.5,8.76067 5.15836,2.53826 8.48796,5.61036 7.8585,7.25073 -0.58456,1.52334 -4.56151,2.32866 -12.8585,2.60381 -6.13127,0.20334 -11.30676,2.15904 -17,6.42395 -4.1991,3.14562 -16.37476,8.65952 -17.53641,7.94158 -0.52997,-0.32754 -0.96359,-0.20306 -0.96359,0.27662 0,0.47969 -2.12596,0.98221 -4.72436,1.11671 -2.59839,0.1345 -4.86012,0.38031 -5.02605,0.54624 -0.16593,0.16594 1.0736,3.73632 2.75451,7.93419 2.73679,6.8348 3.33908,10.2279 2.8221,15.89874 -0.0877,0.9625 -0.53453,1.75 -0.99287,1.75 -0.45833,0 -0.83333,0.48534 -0.83333,1.07853 0,1.68293 -7.11768,8.40757 -11,10.39257 -8.4914,4.34159 -10.86778,5.38934 -16.85488,7.43132 -16.7946,5.72802 -50.4413,7.90258 -69.64512,4.50111 z m 102.82335,-55.24193 c -1.86198,-0.42577 -2.72203,0.3843 -1.87062,1.76191 0.44499,0.72002 1.08263,0.66157 2.00175,-0.18347 1.12752,-1.03664 1.10601,-1.29555 -0.13113,-1.57844 z m 18.48059,-9.1688 c 3.29454,-2.6229 3.38839,-4.11736 0.20631,-3.28523 -1.09326,0.2859 -1.74126,0.91865 -1.43999,1.40612 0.30128,0.48747 -0.15378,0.88631 -1.01124,0.88631 -0.85746,0 -1.55902,0.45 -1.55902,1 0,0.55 -0.70156,1 -1.55902,1 -0.85746,0 -1.30567,0.40992 -0.99603,0.91093 0.86343,1.39706 3.00708,0.75045 6.35899,-1.91813 z m -53.49248,-12.67331 c 0.4463,-0.74885 1.20271,-1.11975 1.6809,-0.82421 0.47819,0.29554 1.1521,0.08 1.49756,-0.47897 0.96595,-1.56294 -2.1591,-1.20427 -3.79944,0.43607 -0.79881,0.79881 -1.66683,1.23794 -1.92893,0.97583 -0.2621,-0.2621 -1.01639,0.17393 -1.6762,0.96895 -1.00167,1.20694 -0.8189,1.34964 1.1075,0.86469 1.26893,-0.31944 2.67231,-1.1935 3.11861,-1.94236 z M 306.78572,392.3386 c 4.02018,-1.84608 8.25912,-5.69349 7.31408,-6.63853 -0.27885,-0.27884 -2.03859,0.11668 -3.91054,0.87896 -1.87195,0.76227 -5.76604,1.93806 -8.65354,2.61286 -7.11991,1.66392 -6.99784,4.04145 0.25,4.8693 0.55,0.0628 2.8,-0.71235 5,-1.72259 z m -12.21025,-44.11927 c 0.38097,-1.45682 0.0307,-2 -1.28975,-2 -1.32043,0 -1.67072,0.54318 -1.28975,2 0.28766,1.1 0.86804,2 1.28975,2 0.42171,0 1.00209,-0.9 1.28975,-2 z m 0.71025,-8 c 0,-1.11111 -0.66667,-2 -1.5,-2 -0.83333,0 -1.5,0.88889 -1.5,2 0,1.11111 0.66667,2 1.5,2 0.83333,0 1.5,-0.88889 1.5,-2 z m 23,-20 c 0,-13.33333 -0.0952,-14 -2,-14 -2.32838,0 -2.70266,2.51639 -0.5,3.36163 1.21832,0.46751 1.5,2.83491 1.5,12.60699 0,6.61726 0.225,12.03138 0.5,12.03138 0.275,0 0.5,-6.3 0.5,-14 z m -22.73557,12.40223 c 1.11931,-1.11931 -0.47193,-3.40223 -2.37142,-3.40223 -2.09096,0 -2.16242,0.13436 -1.28602,2.41821 0.60841,1.58549 2.53707,2.10439 3.65744,0.98402 z m 1.34256,-8.98402 c -0.33385,-0.86998 -0.60699,-1.99498 -0.60699,-2.5 0,-0.50501 -3.78287,-0.91821 -8.40638,-0.91821 -7.83245,0 -8.37168,0.13268 -7.89817,1.9434 0.56141,2.14683 2.68936,2.67724 11.66154,2.90677 4.96519,0.12702 5.76457,-0.091 5.25,-1.43196 z m 0.71332,-9.30133 c -0.60849,-2.32687 -4.68483,-3.09092 -16.57031,-3.10587 -8.03538,-0.0101 -8.75,-0.17191 -8.75,-1.98113 0,-1.84252 0.82583,-1.98825 12.75,-2.25 l 12.75,-0.27988 -0.32277,-6 c -0.21584,-4.01239 -0.91904,-6.66254 -2.12272,-8 -0.98997,-1.1 -2.01314,-2.675 -2.2737,-3.5 -0.60402,-1.91247 -4.76475,4.599 -4.79238,7.5 -0.029,3.04012 -1.56805,4.87529 -3.47503,4.14351 -1.3848,-0.53139 -1.56086,-1.41184 -0.97899,-4.89571 0.3902,-2.33629 1.58523,-5.4853 2.65562,-6.9978 1.07039,-1.5125 1.48305,-2.75 0.91702,-2.75 -1.65338,0 -5.13668,4.24087 -5.73322,6.9801 -1.21531,5.58056 -2.10689,7.5199 -3.45716,7.5199 -2.42425,0 -2.17309,-5.65775 0.48832,-11 l 2.49091,-5 -2.94795,3.46223 c -1.88391,2.21255 -2.94795,4.57994 -2.94795,6.55887 0,3.99951 -2.38832,7.44887 -4.03459,5.82699 -1.13142,-1.11466 -0.48489,-6.2344 1.49619,-11.84809 0.61398,-1.7398 0.43471,-1.69286 -1.3779,0.36078 -1.23115,1.39486 -2.12448,3.84979 -2.18338,6 -0.0966,3.52709 -1.59957,9.79207 -1.80064,7.50585 -0.0548,-0.62335 -1.03523,-1.37802 -2.17867,-1.67704 -1.649,-0.43122 -1.93577,-0.19681 -1.38655,1.13337 0.38085,0.92237 0.91888,2.46454 1.19562,3.42704 0.27675,0.9625 0.95245,1.75 1.50156,1.75 0.54911,0 0.32217,1.03202 -0.5043,2.29338 -1.1873,1.81205 -1.25179,2.63648 -0.30729,3.92817 1.40894,1.92683 5.04053,2.38399 20.73633,2.61035 10.96515,0.15813 11.62718,0.0564 11.16393,-1.71502 z m -37.71614,-13.84605 c -0.3323,-0.33229 -0.56864,0.25834 -0.52522,1.3125 0.048,1.16495 0.28494,1.4019 0.60416,0.60417 0.28887,-0.72188 0.25335,-1.58438 -0.0789,-1.91667 z m 49.11181,-16.62148 c -7.69245,-6.2963 -22.84887,-7.95299 -33.94697,-3.71061 -7.60382,2.90664 -8.60533,4.56771 -2.1614,3.58481 7.42637,-1.13276 24.15408,-0.66842 30.89239,0.85753 8.23832,1.86565 8.36722,1.84756 5.21598,-0.73173 z"
         id="path2858" />
      <path
         style="fill:#808080"
         d="m 266.78572,541.08496 c -25.91837,-3.26339 -46.28173,-13.91388 -49.50751,-25.89354 -2.41115,-8.95432 1.86888,-21.00036 10.10548,-28.44163 7.34068,-6.63187 24.57595,-13.19175 39.40203,-14.99672 2.75,-0.3348 6.98158,-0.85478 9.40351,-1.15552 l 4.40351,-0.54681 -0.57194,-30.30075 c -0.52737,-27.93937 -0.44191,-30.27544 1.09649,-29.97594 7.04611,1.37177 7.37694,1.53994 6.86682,3.49063 -0.28113,1.07506 -0.0482,1.95465 0.51755,1.95465 0.67914,0 0.80074,3.14321 0.35786,9.25 -0.36897,5.0875 -0.81458,11.53103 -0.99025,14.31896 -0.17567,2.78793 -0.84249,6.04636 -1.48183,7.24097 -0.91435,1.70849 -0.85063,2.77495 0.29862,4.99735 1.13459,2.19405 1.35074,5.49183 0.96739,14.75903 -0.49318,11.92222 -0.51378,13.61501 -0.25208,20.71062 0.12403,3.36263 0.37213,3.7055 2.26183,3.12577 1.16739,-0.35814 2.2284,-0.73863 2.35781,-0.84555 0.12941,-0.10692 0.28708,-17.60102 0.35037,-38.87578 0.0633,-21.27475 0.2581,-38.68137 0.43292,-38.68137 0.17481,0 1.02965,-0.27314 1.89963,-0.60699 1.4208,-0.54521 1.58179,2.45721 1.58179,29.5 l 0,30.10699 3.75,0.11535 c 2.0625,0.0634 4.425,0.17594 5.25,0.25 0.825,0.0741 4.86577,-1.74058 8.9795,-4.03253 4.11372,-2.29195 7.84287,-3.9426 8.287,-3.66812 0.89177,0.55115 -6.64767,6.3353 -8.25784,6.3353 -1.61965,0 -1.16058,2.00447 0.61513,2.68588 0.98134,0.37657 1.99478,-0.0398 2.56146,-1.05242 0.51572,-0.92154 1.31318,-1.44345 1.77213,-1.1598 0.45896,0.28365 2.1188,-0.15411 3.68854,-0.97281 1.56974,-0.81869 3.41791,-1.4913 4.10703,-1.49469 0.68912,-0.003 3.32812,-1.29778 5.86443,-2.87642 5.5505,-3.45471 4.84538,-4.36672 -3.86738,-5.00212 -0.9625,-0.0702 -1.75,-0.80262 -1.75,-1.62762 0,-0.825 -0.675,-1.5 -1.5,-1.5 -2.35404,0 -1.75336,-2.69884 0.75,-3.36971 6.00395,-1.609 25.0447,-0.11865 44.10782,3.45238 13.23858,2.47994 33.90773,9.15517 36.8576,11.90339 1.18894,1.10767 2.52685,2.01394 2.97314,2.01394 0.44629,0 0.81144,0.64743 0.81144,1.43873 0,1.34762 -7.00814,3.14558 -9.51506,2.44112 -0.81666,-0.22949 -6.39244,0.54317 -12.27616,1.70116 -0.84486,0.16627 -1.08449,-0.39725 -0.69319,-1.63013 0.98914,-3.11651 -4.00666,-3.72082 -8.94458,-1.08197 -4.98678,2.66497 -10.75028,7.61849 -9.87853,8.49024 0.35247,0.35247 -0.41707,0.64085 -1.71009,0.64085 -1.29302,0 -4.30856,0.94767 -6.7012,2.10592 -3.44984,1.67004 -4.11787,2.38595 -3.22747,3.4588 0.88351,1.06457 0.5712,1.49131 -1.46547,2.00249 -1.42354,0.35728 -2.58825,0.77144 -2.58825,0.92036 0,0.14891 1.17006,2.8265 2.60014,5.9502 3.36342,7.34667 4.22787,16.06036 2.01736,20.33502 -7.79533,15.0745 -37.98549,25.46381 -72.93986,25.10071 -6.6977,-0.0696 -15.32764,-0.52311 -19.17764,-1.00787 z m 12,-15.87728 c -2.75,-0.42781 -7.7,-1.00225 -11,-1.27652 -5.66472,-0.47081 -5.83236,-0.42333 -3,0.84964 1.7683,0.79475 6.28453,1.31884 11,1.27652 7.54721,-0.0677 7.71701,-0.11582 3,-0.84964 z m 95.42349,-40.27057 c -0.87294,-2.48468 -0.3674,-3.22953 2.21521,-3.26387 3.29554,-0.0438 3.32922,1.45893 0.0598,2.66836 -1.20917,0.44731 -2.23293,0.71528 -2.27501,0.59551 z m -57.06018,-15.95677 c 1.22645,-1.56442 3.13669,-1.58594 3.13669,-0.0353 0,0.33421 -0.2961,0.31156 -0.65799,-0.0503 -0.3619,-0.36189 -1.3744,-0.0994 -2.25,0.58334 -1.40633,1.09654 -1.433,1.0385 -0.2287,-0.49767 z m -19.86331,-62.70792 0,-4.18017 -8.25,0.2152 c -9.19802,0.23992 -11.75,1.27393 -11.75,4.76083 0,2.08335 -0.33018,2.285 -2.74795,1.67817 -3.56217,-0.89404 -3.41958,-0.65503 -3.49832,-5.86398 -0.0451,-2.9864 0.50852,-5.06825 1.65203,-6.21176 1.62659,-1.62659 1.48878,-1.85124 -2.53904,-4.13908 -2.34243,-1.33053 -6.12675,-4.08261 -8.4096,-6.11572 -2.28284,-2.03312 -5.63746,-4.83431 -7.45471,-6.22487 -2.77902,-2.12651 -3.41744,-3.39781 -4.01738,-8 -0.47399,-3.63594 -0.34266,-5.70915 0.39142,-6.17942 0.76298,-0.48878 0.51349,-1.7086 -0.80648,-3.94313 -1.32108,-2.2364 -1.54975,-3.3559 -0.74059,-3.62562 1.35594,-0.45198 1.60292,-3.22354 0.28725,-3.22354 -1.7971,0 -2.0405,-4.33424 -0.31872,-5.67553 1.59986,-1.2463 1.59698,-1.38894 -0.0479,-2.3749 -0.9625,-0.57692 -1.75,-1.76448 -1.75,-2.63902 0,-0.87453 0.7875,-2.2025 1.75,-2.95104 1.66667,-1.29617 1.66667,-1.41093 0,-2.40994 -0.9625,-0.57692 -1.75,-1.76448 -1.75,-2.63902 0,-0.87454 0.7875,-2.2025 1.75,-2.95104 1.66667,-1.29617 1.66667,-1.41093 0,-2.40994 -0.96251,-0.57692 -1.75001,-1.67923 -1.75001,-2.44957 0,-0.77034 0.7875,-1.84802 1.75,-2.39483 1.47673,-0.83897 1.55481,-1.31306 0.5,-3.03612 -1.54894,-2.53024 -1.61841,-5.06905 -0.13871,-5.06905 0.69665,0 0.91202,-1.21263 0.57722,-3.25 -0.71419,-4.34604 1.54855,-19.39112 2.81995,-18.75 0.54535,0.275 0.86668,2.075 0.71406,4 -0.18907,2.3849 0.0143,3.06093 0.6382,2.12189 1.17884,-1.77419 3.13928,-0.57186 3.13928,1.92531 0,1.47494 0.9346,2.07861 3.9694,2.5639 3.44195,0.55039 3.84093,0.87478 3.00258,2.44125 -0.77547,1.44898 -1.83223,1.71136 -5.33933,1.32571 -3.74317,-0.41162 -4.44729,-0.19486 -4.89207,1.50597 -0.60373,2.30866 0.90966,3.11597 5.84121,3.11597 2.75154,0 3.41821,0.39007 3.41821,2 0,1.33333 -0.66667,2 -2,2 -1.1,0 -2,0.65917 -2,1.46482 0,1.84249 3.0808,3.53518 6.43426,3.53518 1.61399,0 2.56574,0.55642 2.56574,1.5 0,0.825 -0.3375,1.50689 -0.75,1.51531 -0.4125,0.008 -1.41321,0.43472 -2.2238,0.94733 -1.24516,0.78743 -1.11171,1.31744 0.86023,3.41647 l 2.33401,2.48444 -4.36022,1.20395 c -2.51659,0.69489 -3.72598,1.41998 -2.86022,1.71486 0.825,0.281 1.86516,1.12939 2.31146,1.88531 0.4463,0.75592 1.18264,1.14499 1.63631,0.86461 0.77324,-0.47789 2.39797,3.0701 2.16038,4.71772 -0.0595,0.4125 0.34185,0.75 0.89185,0.75 0.55,0 1,-0.9506 1,-2.11244 0,-2.08384 0.18951,-2.10262 14,-1.38756 l 14,0.72487 0,-2.61243 0,-2.61244 -11.75,-0.0137 c -12.88708,-0.015 -16.25,-0.54145 -16.25,-2.54396 0,-2.09322 0.80433,-2.17939 13.4776,-1.44384 13.36776,0.77586 15.76137,0.48223 15.30771,-1.87785 -0.38923,-2.02486 -5.99387,-2.94608 -18.53531,-3.04658 -8.45367,-0.0677 -9.25,-0.24068 -9.25,-2.00878 0,-1.85197 0.62699,-1.90927 14.66825,-1.34035 13.66741,0.55377 14.62266,0.4755 14,-1.14712 -0.36754,-0.9578 -0.66825,-2.15464 -0.66825,-2.65966 0,-0.50501 -2.025,-0.91821 -4.5,-0.91821 -3.17973,0 -4.5,-0.4087 -4.5,-1.39301 0,-1.79852 2.19617,-2.60699 7.08179,-2.60699 3.206,0 3.91821,-0.35129 3.91821,-1.93261 0,-2.80667 -3.00635,-3.40493 -16.25,-3.23374 -6.4625,0.0835 -11.75,-0.0331 -11.75,-0.2591 0,-0.22603 0.28032,-1.14148 0.62294,-2.03432 0.54552,-1.42162 2.12992,-1.54843 12.75,-1.02051 6.66988,0.33156 12.62209,0.23776 13.22712,-0.20844 0.60503,-0.4462 1.54027,-2.16128 2.07832,-3.81128 0.63441,-1.94548 1.76057,-3.11481 3.20383,-3.32661 1.22405,-0.17964 2.62354,-1.37343 3.10999,-2.65286 0.48644,-1.27944 1.36219,-2.62152 1.94612,-2.98241 1.77638,-1.09786 1.19184,-4.06721 -1.25277,-6.36381 -1.77364,-1.66625 -3.54951,-2.17431 -7.6,-2.17431 -4.6594,0 -5.68135,0.3958 -8.62661,3.34105 -1.83758,1.83759 -3.63016,4.65009 -3.98352,6.25 -1.24462,5.63535 -1.47105,6.02994 -2.5139,4.38092 -2.83884,-4.4889 0.46791,-11.94436 6.45367,-14.55056 l 3.08481,-1.34313 -3.38192,-0.0391 c -4.74567,-0.0549 -9.74992,5.32299 -10.67146,11.46827 -0.37054,2.47093 -0.81081,4.49259 -0.97838,4.49259 -1.67198,0 -3.18307,-1.45755 -2.91796,-2.81458 1.16834,-5.98049 1.71378,-7.34579 4.03832,-10.10835 1.42405,-1.69239 2.2946,-3.07707 1.93455,-3.07707 -1.86604,0 -4.68819,2.42184 -6.15233,5.27964 -0.90744,1.7712 -2.1496,3.55097 -2.76035,3.95505 -0.76272,0.50461 -0.77326,0.73948 -0.0337,0.75 0.62937,0.009 0.8912,1.2799 0.63013,3.05869 -0.50633,3.44984 -2.53597,3.46759 -3.03982,0.0266 -0.50714,-3.46351 0.56691,-6.60043 3.42148,-9.99289 3.30758,-3.93084 1.11745,-4.04441 -2.53767,-0.13159 -1.81983,1.94813 -3.05613,4.71516 -3.65121,8.17195 -0.50133,2.91226 -1.51484,5.42918 -2.28892,5.68426 -0.78583,0.25895 -1.10887,0.004 -0.74377,-0.58655 0.35499,-0.57438 0.14891,-1.20983 -0.45794,-1.41211 -1.81692,-0.60564 0.82267,-8.47127 4.05797,-12.0922 l 2.86892,-3.21083 13.83203,0.0506 c 12.19078,0.0446 20.34063,0.98052 25.38113,2.91474 2.36894,0.90905 1.88976,-4.13141 -0.5491,-5.77589 -1.1,-0.74171 -3.575,-1.40522 -5.5,-1.47447 -1.925,-0.0692 -5.525,-0.6362 -8,-1.2599 -7.1355,-1.79814 -17.02965,-0.68905 -23.72881,2.65988 -3.17415,1.58677 -5.68594,3.33504 -5.58174,3.88504 0.1042,0.54999 -0.70112,1.94797 -1.7896,3.1066 -1.08848,1.15863 -2.2246,3.85863 -2.5247,6 -0.79354,5.66207 -1.14376,6.41942 -2.69354,5.82471 -1.7506,-0.67177 -0.74766,-7.15537 1.67998,-10.86042 1.32072,-2.01567 1.36049,-2.40148 0.20173,-1.95682 -2.21541,0.85013 -4.56159,5.00111 -4.57863,8.10074 -0.0206,3.75282 -1.46426,6.08379 -2.34553,3.78724 -1.09018,-2.84098 -0.71016,-5.95261 1.04172,-8.52955 l 1.68088,-2.4725 -2.18088,1.90499 c -2.13592,1.86571 -2.22376,1.86618 -4.26099,0.0225 -1.43025,-1.29436 -1.95298,-2.74866 -1.67319,-4.65499 0.41199,-2.80708 -0.64852,-3.81914 -1.5954,-1.52251 -0.7769,1.88434 -5.6513,-3.88834 -5.6513,-6.69275 0,-2.82448 5.97826,-12.05725 7.80712,-12.05725 0.71892,0 2.06892,-0.92309 3,-2.05132 4.51502,-5.47101 13.85764,-10.40689 23.47865,-12.4042 4.19172,-0.8702 5.46628,-1.52706 5.05297,-2.60411 -0.43771,-1.14067 0.5354,-1.44037 4.67672,-1.44037 4.31158,0 5.03009,0.24019 4.09372,1.36845 -0.9221,1.11106 -0.33384,1.48132 3.12755,1.96853 2.3448,0.33004 5.4592,0.88375 6.9209,1.23046 2.01414,0.47776 2.74052,0.22188 3,-1.05682 0.29597,-1.45855 1.22329,-1.23063 6.84237,1.68174 3.575,1.85292 6.55625,3.91765 6.625,4.58829 0.0687,0.67064 0.18125,1.62722 0.25,2.12573 0.0687,0.49851 0.97236,0.68479 2.00803,0.41396 1.98206,-0.51832 5.49036,3.26648 4.50529,4.86037 -0.29056,0.47012 0.85321,2.59904 2.5417,4.73093 3.58505,4.52649 3.69648,5.21141 1.21346,7.45851 -1.20349,1.08914 -1.69011,2.55067 -1.38342,4.15499 0.3989,2.08672 0.0901,2.47486 -1.96917,2.47486 -1.34324,0 -3.47766,1.10213 -4.74315,2.44918 l -2.30088,2.44918 2.73942,0.68755 c 2.38532,0.59868 3.43178,-0.009 8.09568,-4.69918 2.94594,-2.9627 5.37016,-6.17423 5.38715,-7.13673 0.0402,-2.28011 4.03089,-2.39012 4.03089,-0.11112 0,0.90138 -3.4107,5.20881 -7.57933,9.57207 -5.65445,5.91845 -7.389,8.35933 -6.82991,9.61112 0.41219,0.92286 0.94171,3.5717 1.17672,5.88631 0.23501,2.3146 1.05846,4.7322 1.8299,5.37244 1.13072,0.93841 1.37634,5.2597 1.26703,22.29162 -0.0746,11.62016 -0.41207,26.52756 -0.75,33.12756 -0.57073,11.14685 -0.77238,12.06932 -2.8363,12.97502 -2.56482,1.12552 -3.90342,4.16395 -4.63614,10.52342 -0.63684,5.52724 -3.43723,8.20438 -11.11314,10.62399 -4.20153,1.32442 -5.23789,2.02321 -4.43512,2.99049 1.33239,1.60542 0.10269,10.38199 -1.45725,10.40073 -0.62505,0.008 -2.14896,0.285 -3.38646,0.61664 -2.07066,0.55491 -2.25,0.26979 -2.25,-3.5772 z m -1.5,-6.05309 c -0.33992,-0.55 -1.46492,-1 -2.5,-1 -1.03508,0 -2.16008,0.45 -2.5,1 -0.36155,0.585 0.67595,1 2.5,1 1.82405,0 2.86155,-0.415 2.5,-1 z m 11.06716,-7.46362 c 3.93224,-1.64299 5.57039,-3.05635 7.31009,-6.30702 1.21752,-2.27496 0.32201,-3.02862 -1.46971,-1.2369 -0.54586,0.54586 -4.34836,1.84363 -8.45,2.88394 -4.81321,1.22078 -7.56643,2.4346 -7.76463,3.42322 -0.54034,2.69525 5.23561,3.38383 10.37425,1.23676 z m -12.27741,-19.53638 c 0.41755,-1.59671 0.0307,-2 -1.91855,-2 -2.13169,0 -2.30572,0.25384 -1.3712,2 0.5887,1.1 1.45205,2 1.91855,2 0.4665,0 1.08354,-0.9 1.3712,-2 z m 23.58303,-42.62756 c 0.13285,-23.10665 0.21894,-23.56526 4.62722,-24.64883 1.1,-0.27038 -0.0475,-0.54381 -2.55,-0.60761 -2.5025,-0.0638 -4.9775,0.31009 -5.5,0.83087 -0.99122,0.98796 -0.30212,33.06825 1.20406,56.05313 l 0.81911,12.5 0.63619,-11 c 0.34991,-6.05 0.69345,-20.9574 0.76342,-33.12756 z m -22.87278,35.62756 c 0,-0.55 -0.42344,-1 -0.94098,-1 -0.51754,0 -1.2191,0.45 -1.55902,1 -0.33992,0.55 0.0835,1 0.94098,1 0.85746,0 1.55902,-0.45 1.55902,-1 z m 1.24475,-9.5 c 0.46222,-2.41796 0.30004,-2.5 -4.94244,-2.5 -5.49189,0 -5.71267,0.27377 -3.02417,3.75 0.53171,0.6875 2.43419,1.25 4.22773,1.25 2.68427,0 3.34549,-0.44213 3.73888,-2.5 z m 0.75525,-8.5 c 0,-1.75093 -0.66667,-2 -5.35331,-2 -2.94432,0 -8.23182,-0.28813 -11.75,-0.64028 l -6.39669,-0.64029 2.42431,2.64029 c 2.28785,2.49165 2.94928,2.64028 11.75,2.64028 8.65902,0 9.32569,-0.14297 9.32569,-2 z m 4.54112,-71.93347 c -0.36254,-0.58659 -1.10034,-1.06653 -1.63956,-1.06653 -0.53923,0 -0.40017,0.62961 0.30901,1.39914 1.43566,1.55781 2.35661,1.3276 1.33055,-0.33261 z m -18.31075,-1.06653 2.14675,-2 -4.18856,0 c -4.31243,0 -5.07454,0.71402 -2.98856,2.8 1.6563,1.6563 2.54567,1.51486 5.03037,-0.8 z m -12.4948,44.40223 c -0.32877,-0.32877 -0.35563,-1.22877 -0.0597,-2 0.35742,-0.93141 2.09706,-1.39155 5.1811,-1.37043 4.46411,0.0306 8.81354,1.96434 7.4608,3.31708 -0.81685,0.81685 -11.77227,0.8633 -12.58222,0.0534 z"
         id="path2856" />
      <path
         style="fill:#7b7b7b"
         d="m 271.78572,541.58082 c -22.63051,-2.55608 -39.51598,-8.61079 -48.54775,-17.408 -6.19088,-6.03011 -7.60265,-10.70671 -5.92161,-19.61588 2.1901,-11.6071 10.29524,-20.37253 24.18438,-26.1546 7.48812,-3.11731 24.92157,-7.17207 30.94206,-7.19666 1.83861,-0.008 4.39483,-0.2953 5.68049,-0.63954 l 2.33757,-0.62587 -0.33757,-29.86097 c -0.25759,-22.78644 -0.0526,-29.86085 0.86538,-29.86047 2.04208,8.5e-4 6.29085,2.26177 6.41003,3.41102 0.0621,0.59921 0.22024,2.48671 0.35134,4.19443 0.13109,1.70772 0.55681,3.62022 0.94603,4.25 0.38923,0.62978 0.15613,1.14505 -0.518,1.14505 -0.67413,0 -0.94152,0.28417 -0.5942,0.63148 0.34732,0.34732 0.16971,1.49431 -0.39468,2.54888 -0.56438,1.05457 -1.19118,4.2579 -1.39288,7.11852 -0.2017,2.86062 -0.93546,6.63106 -1.63058,8.37877 -1.01034,2.54022 -1.01794,4.74676 -0.0379,11 1.37225,8.75578 1.40165,9.84559 0.5416,20.07573 -0.73357,8.72574 0.22851,16.16059 2.18853,16.91272 0.78773,0.30227 2.55623,0.26749 3.93,-0.0773 l 2.49776,-0.6269 0,-38.87396 c 0,-33.63214 0.20226,-38.95158 1.5,-39.44957 1.31267,-0.50372 1.5,3.14979 1.5,29.25533 l 0,29.83094 5.53462,0.65048 c 4.81151,0.5655 6.1507,0.30852 10.25,-1.9669 2.59346,-1.43956 5.27788,-3.07542 5.96538,-3.63525 0.6875,-0.55982 1.24715,-0.62526 1.24368,-0.14541 -0.007,0.99477 -6.10409,4.82677 -7.24368,4.55277 -0.4125,-0.0992 -0.75,0.23392 -0.75,0.74021 0,0.5063 1.34451,1.21585 2.98781,1.57678 2.20483,0.48427 3.77716,0.0942 6,-1.48864 1.6567,-1.17968 3.01219,-1.91219 3.01219,-1.6278 0,0.81197 6.83115,-2.2492 11.26448,-5.04784 4.42045,-2.79051 3.82565,-4.25814 -1.76448,-4.35369 -1.65,-0.0282 -4.3304,-1.13857 -5.95643,-2.46748 -2.76972,-2.26361 -2.83288,-2.46658 -1,-3.21381 4.74563,-1.93471 26.93419,-0.38786 44.45643,3.09923 21.25716,4.23039 40,11.32683 40,15.14486 0,0.91203 -1.0296,1.47589 -2.75,1.50604 -3.19603,0.056 -12.06458,0.79255 -14.25,1.18348 -0.825,0.14758 -1.59643,-0.0852 -1.71429,-0.51738 -0.11785,-0.43215 -0.89546,-1.46689 -1.72801,-2.29944 -2.93361,-2.93361 -11.84389,0.72982 -19.62125,8.0672 -0.85995,0.81131 -3.53761,2.17159 -5.95035,3.02285 -4.75407,1.67734 -8.23576,4.28213 -7.44149,5.56729 0.2736,0.44269 -0.20538,1.19821 -1.0644,1.67895 -1.37585,0.76996 -1.26667,1.51116 0.91677,6.22391 3.27053,7.05909 4.34043,16.71271 2.28636,20.62946 -3.23691,6.17218 -12.98355,13.58695 -22.89964,17.42093 -15.37702,5.94541 -45.82854,9.42053 -64.2837,7.33605 z m 12.37641,-15.26394 c 1.36935,-0.86736 -0.44636,-1.1497 -17.37641,-2.702 -8.14413,-0.74673 -8.00146,0.42817 0.26777,2.20508 6.8306,1.46777 15.19246,1.71064 17.10864,0.49692 z M 273.03572,408.42196 c -1.40877,-0.28117 -1.75,-1.40742 -1.75,-5.77595 0,-2.98468 0.40186,-5.42668 0.89301,-5.42668 0.49116,0 1.14414,-0.65443 1.45107,-1.45428 0.37704,-0.98255 -0.82445,-2.14475 -3.70404,-3.58288 -2.34416,-1.17073 -6.25965,-4.09587 -8.70108,-6.5003 -2.44143,-2.40443 -4.99109,-4.39214 -5.66591,-4.41712 -3.18549,-0.11793 -7.67201,-14.37245 -4.84087,-15.38036 0.67728,-0.24111 0.42779,-1.49444 -0.68218,-3.4269 -2.1292,-3.70692 -2.2001,-4.62486 -0.30093,-3.89608 1.63167,0.62613 1.14598,-1.47066 -1.11523,-4.81459 -1.6912,-2.50098 -1.70757,-3.88488 -0.0384,-3.24435 0.74465,0.28575 1.35342,-0.27218 1.43177,-1.31221 0.075,-0.99512 -0.50801,-2.05656 -1.29548,-2.35874 -1.97002,-0.75597 -1.79726,-3.60745 0.31824,-5.25268 1.66667,-1.29617 1.66667,-1.41093 0,-2.40994 -2.13858,-1.28188 -2.32383,-4.94957 -0.24997,-4.94957 1.90626,0 1.96699,-2.60682 0.0776,-3.33184 -0.86736,-0.33284 -1.2132,-1.34571 -0.88631,-2.59574 0.29484,-1.12746 0.93491,-1.80343 1.42238,-1.50216 0.48749,0.30128 0.88633,-0.60378 0.88633,-2.01124 0,-1.40746 -0.45,-2.55902 -1,-2.55902 -0.55,0 -1,-0.94815 -1,-2.10699 0,-1.33317 0.48425,-1.92116 1.31855,-1.60101 0.84946,0.32597 1.29416,-0.25855 1.25,-1.64302 -0.0377,-1.18194 0.49395,-2.10398 1.18145,-2.04898 0.6875,0.055 3.5,0.1675 6.25,0.25 4.28333,0.1285 5,0.43667 5,2.15 0,1.73379 -0.66667,2 -5.00847,2 -4.75815,0 -4.94605,0.1 -3.75946,2 0.81165,1.29966 2.33203,2 4.34181,2 3.58111,0 4.50224,0.63806 3.75023,2.59777 -0.29595,0.77122 -1.83994,1.40223 -3.4311,1.40223 -3.91001,0 -3.84004,2.81627 0.10699,4.3061 1.87729,0.7086 3,1.84045 3,3.02443 0,1.63203 -0.51535,1.80522 -3.75,1.2602 -2.90349,-0.48921 -3.35496,-0.39025 -2,0.4384 0.9625,0.58864 1.75,1.72289 1.75,2.52056 0,0.79767 0.9,1.45031 2,1.45031 1.33333,0 2,0.66667 2,2 0,1.11111 -0.66667,2 -1.5,2 -0.825,0 -1.5,0.46412 -1.5,1.03138 0,1.08867 0.69715,1.40268 5.44785,2.45381 2.21979,0.49114 2.59718,0.86895 1.52802,1.52972 -1.17022,0.72324 -1.09936,1.00047 0.40308,1.57701 1.04606,0.40141 2.13396,0.19621 2.55281,-0.48151 0.54693,-0.88494 3.62218,-0.9499 12.26681,-0.2591 13.14534,1.05044 16.42485,0.69672 17.08906,-1.84322 0.42951,-1.64242 -0.78375,-1.8541 -14.40932,-2.51398 -13.80224,-0.66844 -14.87831,-0.86065 -14.87831,-2.65752 0,-1.86091 0.58898,-1.90954 15,-1.23847 l 15,0.69849 0,-2.5371 0,-2.5371 -14.42855,-0.3731 c -7.93571,-0.20519 -14.7413,-0.68583 -15.12354,-1.06807 -0.38224,-0.38224 -0.47219,-1.27689 -0.19988,-1.98811 0.38638,-1.00915 3.21353,-1.15452 12.87354,-0.66198 14.07902,0.71785 17.1188,0.35549 16.66769,-1.9869 -0.41023,-2.13019 -5.72202,-3.01456 -18.53926,-3.08662 -9.42963,-0.053 -10.25,-0.21167 -10.25,-1.98229 0,-1.839 0.66272,-1.8992 14.88954,-1.35243 l 14.88954,0.57224 -0.50612,-2.64757 c -0.46508,-2.43291 -0.90207,-2.64758 -5.38954,-2.64758 -2.68588,0 -4.88342,-0.3949 -4.88342,-0.87756 0,-1.43456 2.82996,-3.34556 3.93919,-2.66003 0.56473,0.34903 2.57815,0.34356 4.47425,-0.0121 2.56944,-0.48203 3.41108,-1.1297 3.30462,-2.54303 -0.19532,-2.59287 -4.73655,-3.41036 -17.96806,-3.23453 -5.9125,0.0786 -10.75,-0.004 -10.75,-0.18313 0,-0.1793 0.27841,-1.05152 0.61869,-1.93826 0.54349,-1.41634 2.1669,-1.53054 13.35795,-0.93974 12.15202,0.64153 12.838,0.57379 14.88131,-1.46952 1.17813,-1.17813 3.26705,-2.14205 4.64205,-2.14205 2.11111,0 2.5,-0.46667 2.5,-3 0,-2.77855 0.26611,-3 3.60504,-3 l 3.60503,0 -0.60674,4.25 c -1.57232,11.01355 -0.59183,70.9205 1.17036,71.5079 1.23457,0.41152 2.22631,-19.54187 2.22631,-44.79246 0,-22.06824 0.0861,-22.46596 5,-23.08751 4.92485,-0.62294 5.00943,-0.23295 4.86441,22.43109 -0.0746,11.65504 -0.41207,26.59098 -0.75,33.19098 -0.56735,11.08085 -0.78175,12.07346 -2.79913,12.95902 -2.59693,1.13997 -4.31528,4.53381 -4.31528,8.52293 0,6.71995 -4.19391,10.77907 -13.57855,13.14215 -3.60381,0.90745 -4.18359,1.34112 -3.00804,2.25001 1.07181,0.82868 1.30711,2.37978 0.89135,5.87589 -0.50538,4.24982 -0.8282,4.75 -3.06565,4.75 -2.29957,0 -2.45509,-0.28163 -1.93282,-3.5 0.54922,-3.38449 0.46279,-3.50051 -2.61916,-3.51531 -2.3274,-0.0112 -2.79538,-0.26314 -1.73488,-0.93402 0.79874,-0.50529 1.81124,-0.69684 2.25,-0.42567 0.43876,0.27117 0.79775,-0.20852 0.79775,-1.06598 0,-1.05789 -0.94339,-1.55902 -2.9349,-1.55902 -3.67473,0 -8.35472,1.72237 -7.67377,2.82417 0.28142,0.45535 -2.04171,0.48141 -5.16253,0.0579 -3.12081,-0.42351 -5.7541,-0.68273 -5.85175,-0.57605 -0.0976,0.10669 -0.55993,2.00565 -1.02729,4.21993 -0.64874,3.07357 -1.26374,3.94333 -2.59976,3.67667 z m 18.99125,-12.45263 c 1.61137,-2.04253 1.09386,-4.75 -0.90792,-4.75 -1.37037,0 -1.83333,0.75758 -1.83333,3 0,3.15478 1.08603,3.8481 2.74125,1.75 z m 16.73977,-4.03762 c 3.3709,-1.90917 7.11093,-6.45376 6.12367,-7.44102 -0.16259,-0.16259 -2.29677,0.58959 -4.74263,1.67151 -2.44586,1.08192 -6.37896,2.27606 -8.74023,2.65364 -4.44716,0.71113 -6.4499,2.94894 -4.01755,4.4891 2.43275,1.54041 7.26139,0.95757 11.37674,-1.37323 z m 8.01898,-13.71238 c -0.33992,-0.55 -0.81648,-1 -1.05902,-1 -0.24254,0 -0.44098,0.45 -0.44098,1 0,0.55 0.47656,1 1.05902,1 0.58246,0 0.7809,-0.45 0.44098,-1 z m -21.76138,-3.5 1.07418,-3.5 -4.45609,0 c -3.33759,0 -4.25536,0.31584 -3.6564,1.25831 4.43541,6.97911 5.48204,7.31246 7.03831,2.24169 z m -10.55112,-4.18311 c -0.72188,-0.28887 -1.58438,-0.25335 -1.91667,0.0789 -0.33229,0.33229 0.25834,0.56864 1.3125,0.52522 1.16495,-0.048 1.4019,-0.28494 0.60417,-0.60416 z m 11.8125,-3.7351 c 0,-0.23002 0.27314,-1.13002 0.60699,-2 0.92737,-2.41668 -4.74299,-2.07175 -6.87496,0.41821 -1.67132,1.95196 -1.61661,2 2.27776,2 2.19461,0 3.99021,-0.1882 3.99021,-0.41821 z m 1,-8.5 c 0,-0.50502 0.27314,-1.63002 0.60699,-2.5 0.52859,-1.37749 -0.68634,-1.58179 -9.40638,-1.58179 -9.43446,0 -9.9839,0.1127 -9.50358,1.94943 0.39324,1.50378 1.57203,2.03409 5.15638,2.31975 9.50951,0.75788 13.14659,0.70604 13.14659,-0.18739 z m -24.19516,-38.88709 c -4.36142,-0.51292 -2.3737,-3.1947 2.36789,-3.1947 4.43224,0 8.19789,1.59131 7.28003,3.07643 -0.55862,0.90387 -2.74041,0.93062 -9.64792,0.11827 z m -23.72589,-7.61137 c -0.0434,-1.05416 0.19292,-1.64479 0.52522,-1.3125 0.33229,0.33229 0.36781,1.19479 0.0789,1.91667 -0.31922,0.79773 -0.55618,0.56078 -0.60416,-0.60417 z m 1.58772,-2.25 c -1.0469,-1.0469 -0.77893,-2.52075 0.33333,-1.83333 0.55,0.33992 1,0.14148 1,-0.44098 0,-1.17963 3.61387,-1.34889 9.17319,-0.42964 2.56902,0.4248 3.51382,1.0227 3.14301,1.989 -0.37253,0.97079 -2.38158,1.38162 -6.75652,1.38162 -3.42449,0 -6.52635,-0.3 -6.89301,-0.66667 z m -0.007,-8.08333 c 0.84577,-6.46151 1.33999,-6.61518 1.33999,-0.41667 0,2.84167 -0.44139,5.16667 -0.98087,5.16667 -0.59076,0 -0.73359,-1.88918 -0.35912,-4.75 z m 67.00666,3.08333 c -0.36667,-0.36666 -0.66667,-2.57006 -0.66667,-4.89642 0,-3.9422 0.57526,-4.83168 8.46147,-13.08334 4.65381,-4.86946 8.47881,-9.41607 8.5,-10.10357 0.0477,-1.54652 4.03853,-1.68009 4.03853,-0.13516 0,0.61316 -3.44908,4.65909 -7.66463,8.99097 -7.21162,7.41062 -7.59579,8.02721 -6.5,10.43222 0.64055,1.40584 1.16463,4.1099 1.16463,6.00902 0,3.24668 -0.19913,3.45295 -3.33333,3.45295 -1.83334,0 -3.63334,-0.3 -4,-0.66667 z m -32.98148,-7.60398 c -1.09031,-8.05312 4.04002,-12.27203 14.77221,-12.14788 8.09106,0.0936 14.02971,2.22721 15.03754,5.4026 1.12977,3.55958 -0.15661,3.44079 -4.08821,-0.37753 -3.34164,-3.24536 -4.25855,-3.60654 -9.15584,-3.60654 -3.17415,0 -6.56158,0.66117 -8.12793,1.58644 -3.19128,1.88513 -6.12296,6.64231 -6.12296,9.93558 0,4.16992 -1.7228,3.57997 -2.31481,-0.79267 z m -28.6218,-0.96876 c -0.0578,-4.32242 0.37654,-5.2252 4.93661,-10.26059 2.75,-3.03665 5,-5.74141 5,-6.01059 0,-1.52356 -2.58638,0.0443 -6.45542,3.91338 l -4.40279,4.40279 -4.96596,-6.65279 c -4.88905,-6.54974 -4.94221,-6.69878 -3.43204,-9.62164 0.84365,-1.63287 4.1572,-5.59214 7.36344,-8.79838 20.59172,-20.59172 56.94242,-17.47064 73.41805,6.30371 l 2.78961,4.02541 -2.89311,3.21905 c -1.59121,1.77048 -4.45446,4.90766 -6.36278,6.9715 l -3.46967,3.75245 -3.54466,-3.44694 c -1.94957,-1.89582 -6.69467,-4.93442 -10.54467,-6.75245 -6.11135,-2.88587 -8.20603,-3.34632 -16.5,-3.62702 -7.94938,-0.26905 -10.26855,0.0212 -14.20858,1.77847 -4.34801,1.93919 -6.50063,3.66717 -5.64021,4.52759 0.19332,0.19332 2.81144,-0.28662 5.81806,-1.06653 6.7475,-1.75027 11.03936,-1.76259 5.53073,-0.0159 -2.2,0.6976 -5.98057,2.28637 -8.40127,3.5306 -3.31795,1.70543 -4.05636,2.48062 -3,3.14944 0.95797,0.60653 1.01395,0.89204 0.17695,0.90251 -1.82103,0.0228 -4.27568,5.42309 -4.27568,9.40663 0,3.77898 -1.41805,5.5676 -2.39522,3.02115 -1.17766,-3.06893 -0.57437,-6.06514 1.89522,-9.41247 3.01999,-4.09337 3.06671,-4.37366 0.5,-3 -2.60422,1.39374 -5.56124,5.94507 -5.20991,8.01889 0.15174,0.89569 -0.16043,2.72035 -0.69371,4.05482 -0.83737,2.09539 -0.97825,1.77993 -1.03299,-2.31312 z m 9.60328,3.57274 c -2.30871,-2.3087 0.55395,-10.97359 4.55012,-13.77263 3.27915,-2.2968 4.44839,-1.89862 2.02414,0.6893 -2.60612,2.78206 -4.24093,6.95112 -4.24093,10.8151 0,2.80978 -0.90857,3.693 -2.33333,2.26823 z m 6,0 c -1.33168,-1.33167 -0.61313,-6.90887 1.29285,-10.03478 1.91764,-3.14505 6.68228,-6.35995 9.24082,-6.23516 0.71481,0.0349 0.34269,0.44981 -0.82694,0.92212 -2.13393,0.8617 -9.00025,10.01449 -7.51276,10.01449 0.43614,0 0.59484,1.35 0.35267,3 -0.43169,2.94127 -1.21814,3.66184 -2.54664,2.33333 z m 5.97281,-0.0272 c -1.32512,-1.32511 -0.55731,-6.92866 1.38615,-10.11632 2.09951,-3.44359 7.25835,-6.2551 11.19225,-6.09964 1.81126,0.0716 1.61904,0.28187 -0.93163,1.0192 -3.95377,1.14293 -8.18346,6.48236 -8.96882,11.32194 -0.59727,3.68053 -1.52699,5.02578 -2.67795,3.87482 z"
         id="path2854" />
      <path
         style="fill:#6c6c6c"
         d="m 271.78572,541.64254 c -24.63304,-3.28904 -39.47057,-8.62827 -48.54775,-17.46972 -6.19088,-6.03011 -7.60265,-10.70671 -5.92161,-19.61588 2.1901,-11.6071 10.29524,-20.37253 24.18438,-26.1546 7.48812,-3.11731 24.92157,-7.17207 30.94206,-7.19666 1.83861,-0.008 4.37055,-0.28896 5.62654,-0.62543 l 2.28363,-0.61177 -0.11329,-29.46158 c -0.0623,-16.20387 0.0547,-29.62958 0.26005,-29.83491 0.20533,-0.20533 1.359,-0.11558 2.56371,0.19946 3.45785,0.90425 5.61706,10.73054 2.97228,13.52645 -0.6875,0.72679 -1.36296,2.22143 -1.50102,3.32143 -0.13806,1.1 -0.64852,4.78716 -1.13435,8.19368 -0.48583,3.40652 -0.75725,16.626 -0.60315,29.3766 0.3048,25.21941 0.22284,24.88555 6.11608,24.91441 5.37236,0.0263 5.60398,-0.97782 5.3545,-23.21337 -0.40337,-35.95218 -0.0416,-55.77132 1.01794,-55.77132 0.64407,0 1,10.5 1,29.5 l 0,29.5 3.75,0.19479 c 2.0625,0.10714 4.875,0.25671 6.25,0.33238 1.375,0.0757 4.57973,0.45692 7.12162,0.84723 3.65894,0.56182 5.32533,0.30568 8,-1.2297 1.85811,-1.06663 4.50338,-2.27219 5.87838,-2.67902 3.80241,-1.12502 11.29182,-6.57419 10.34002,-7.52322 -0.46201,-0.46067 -2.45695,-1.00291 -4.43321,-1.20497 -3.87726,-0.39643 -8.81026,-4.06109 -6.98507,-5.18912 2.99064,-1.84832 30.11589,-0.25216 41.57826,2.44663 2.75,0.64749 6.125,1.37271 7.5,1.61162 6.10055,1.05999 8.56771,1.67458 9.5,2.36654 0.55,0.40821 4.15,1.55649 8,2.55172 3.85,0.99523 9.025,2.91026 11.5,4.25562 8.09406,4.39977 7.50335,6.21905 -2.08136,6.41028 -3.53025,0.0704 -7.45686,0.50497 -8.72579,0.96562 -1.26893,0.46066 -2.09633,0.49645 -1.83867,0.0796 0.25766,-0.4169 -0.14881,-1.60219 -0.90326,-2.63396 -2.28588,-3.12613 -8.32101,-1.60324 -16.05448,4.05115 -8.31424,6.07903 -7.96337,5.86701 -13.64644,8.246 -3.59001,1.50281 -4.75,2.51668 -4.75,4.15162 0,1.45646 -0.4633,1.98543 -1.41806,1.61906 -0.95593,-0.36683 -0.47503,1.47215 1.47568,5.64301 3.18971,6.81997 4.32073,15.22037 2.70435,20.08604 -2.08063,6.26322 -11.33619,13.7824 -22.76197,18.49175 -10.38273,4.27943 -28.00105,7.21924 -45.5,7.59217 -8.8,0.18754 -17.35,0.16073 -19,-0.0596 z m 13.96803,-15.33306 c 1.37867,-0.53891 0.0311,-0.95775 -4.5,-1.39862 -23.15788,-2.25325 -26.40785,-2.10767 -15.91448,0.71288 5.83234,1.56769 17.18281,1.94896 20.41448,0.68574 z m 25.13498,-57.25682 c 0.28326,-0.45833 0.93847,-0.83333 1.45601,-0.83333 0.51754,0 0.94098,0.375 0.94098,0.83333 0,0.45834 -0.65521,0.83334 -1.45601,0.83334 -0.80081,0 -1.22425,-0.375 -0.94098,-0.83334 z m 4.13032,-1.95742 c 0.67834,-0.68342 1.48524,-0.99067 1.79313,-0.68278 0.30789,0.30789 -0.24711,0.86705 -1.23333,1.24258 -1.4252,0.54268 -1.54006,0.42782 -0.5598,-0.5598 z m -14.73333,-61.78229 c 0,-3.52519 -0.21956,-3.86001 -2.25,-3.4312 -1.98224,0.41864 -2.04174,0.34208 -0.5,-0.64331 0.9625,-0.61517 1.75,-1.54613 1.75,-2.0688 0,-1.42142 -7.93611,-1.06357 -12.5,0.56364 -2.44543,0.87189 -5.55457,1.18939 -8,0.81695 -2.2,-0.33507 -3.66092,-0.24502 -3.24649,0.20012 0.41443,0.44513 0.0582,1.87046 -0.79156,3.1674 -0.84979,1.29694 -1.27481,2.79536 -0.94449,3.32983 0.33031,0.53446 -0.10098,0.97175 -0.95844,0.97175 -2.15066,0 -2.20015,-9.22302 -0.059,-11 2.31302,-1.91964 1.86106,-2.67937 -3.05435,-5.13424 -2.50489,-1.25101 -6.58206,-4.44234 -9.06037,-7.09186 -2.47832,-2.64952 -4.90909,-4.5682 -5.40172,-4.26374 -1.48693,0.91897 -4.01832,-3.96761 -4.8804,-9.42108 -0.77563,-4.90663 -0.71905,-5.1055 1.29286,-4.54462 1.15719,0.32261 1.65326,0.21958 1.10239,-0.22895 -0.55088,-0.44853 -1.65466,-2.16551 -2.45285,-3.81551 -0.79819,-1.65 -1.65879,-3.41397 -1.91245,-3.91994 -0.25366,-0.50597 0.23669,-0.65213 1.08966,-0.32482 1.15565,0.44347 1.42153,0.10055 1.04334,-1.34564 -0.27914,-1.06742 -0.90321,-2.18531 -1.38682,-2.4842 -0.48363,-0.29889 -0.87931,-1.44343 -0.87931,-2.54343 0,-1.1 0.35659,-1.77962 0.79241,-1.51027 0.43583,0.26936 0.85513,-0.34272 0.93177,-1.36017 0.0766,-1.01746 -0.50495,-2.09716 -1.29242,-2.39934 -0.78747,-0.30218 -1.43176,-1.44942 -1.43176,-2.54942 0,-1.36694 0.4748,-1.8178 1.5,-1.4244 1.04085,0.39941 1.5,-0.0693 1.5,-1.53138 0,-1.15885 -0.45,-2.10699 -1,-2.10699 -0.55,0 -1,-0.9 -1,-2 0,-2.58976 2.03113,-2.59695 2.70774,-0.01 0.3993,1.5269 1.07611,1.85096 2.90638,1.39159 1.43965,-0.36132 2.38588,-0.15922 2.38588,0.5096 0,0.60963 1.35,1.10841 3,1.10841 2.33333,0 3,0.44444 3,2 0,1.46667 -0.66667,2 -2.5,2 -2.72207,0 -2.78844,0.0848 -1.89301,2.41821 0.33384,0.86999 1.5113,1.58179 2.61658,1.58179 1.60433,0 1.91321,0.50415 1.53168,2.5 -0.44303,2.31755 -0.1961,2.5 3.38342,2.5 3.24393,0 3.86133,-0.33252 3.86133,-2.07959 0,-1.95395 0.37762,-2.04015 6.25,-1.42669 12.65764,1.32228 22.75108,1.11594 23.74286,-0.48536 0.50812,-0.8204 0.6051,-1.80229 0.2155,-2.18198 -0.3896,-0.37969 -7.22839,-1.05845 -15.19731,-1.50836 -12.45786,-0.70335 -14.53454,-1.05673 -14.81424,-2.52086 -0.29907,-1.56556 0.92947,-1.65384 15.23895,-1.09501 l 15.56424,0.60784 0,-2.65499 0,-2.655 -10.36043,0 c -13.71966,0 -19.63957,-0.83969 -19.63957,-2.7857 0,-1.30008 1.87108,-1.44527 13.25,-1.02812 15.14051,0.55504 16.75,0.3505 16.75,-2.12866 0,-2.34893 -4.20577,-3.03229 -18.75,-3.04651 -10.33442,-0.0101 -11.25,-0.1638 -11.25,-1.88835 0,-1.77754 0.81814,-1.84985 15.38806,-1.36019 l 15.38805,0.51716 -0.49535,-2.59128 c -0.44677,-2.33713 -0.99974,-2.62055 -5.63806,-2.88981 -2.82848,-0.1642 -5.01899,-0.74854 -4.8678,-1.29854 0.34455,-1.25335 14.93546,-3.66828 17.9751,-2.97505 1.2375,0.28224 2.3022,1.29208 2.366,2.2441 0.10861,1.62064 0.14515,1.61943 0.57333,-0.019 0.25152,-0.9625 0.99197,-1.75 1.64543,-1.75 0.89043,0 1.18524,7.26594 1.17667,29 -0.0102,26.00174 0.1551,29 1.59928,29 2.37106,0 2.8683,-6.43886 2.89591,-37.5 0.0132,-14.85 0.41619,-27.61915 0.89552,-28.3759 0.47933,-0.75675 2.60994,-1.43174 4.73469,-1.5 l 3.86317,-0.1241 0.25181,12.5 c 0.1385,6.875 -0.0865,21.90214 -0.5,33.39365 -0.69619,19.34785 -0.89807,20.97551 -2.72877,22 -3.27774,1.83429 -4.4578,3.91158 -4.49124,7.90601 -0.0175,2.08981 -0.66677,5.02756 -1.44284,6.52832 -1.48696,2.87546 -7.83095,6.5048 -13.40238,7.66738 -2.75572,0.57504 -3.06124,0.88608 -1.81518,1.84802 2.30051,1.77597 1.04928,10.65662 -1.50145,10.65662 -1.50747,0 -1.86995,-0.75723 -1.86995,-3.90638 z m -7.42857,-9.52219 c 2.02283,-2.02283 1.90608,-5.96864 -0.15322,-5.17842 -0.86998,0.33385 -2.21998,0.60699 -3,0.60699 -0.90912,0 -1.41821,1.07689 -1.41821,3 0,3.31738 2.10268,4.04018 4.57143,1.57143 z m 14.72823,-3.19202 c 1.76019,-0.89132 3.98784,-2.31107 4.95034,-3.15499 1.59056,-1.3946 1.7574,-1.36083 1.83122,0.37059 0.06,1.40789 0.43968,1.12215 1.45489,-1.09501 1.60123,-3.49695 1.92406,-11.5 0.46389,-11.5 -0.55,0 -1,1.51959 -1,3.37686 0,3.08517 -0.41923,3.5572 -4.85343,5.46474 -2.66938,1.14834 -6.75794,2.39243 -9.08569,2.76465 -4.3949,0.70278 -6.37701,2.94677 -3.9566,4.47936 2.18188,1.38156 6.68899,1.06937 10.19538,-0.7062 z m -34.17557,-7.64608 c -0.98762,-0.98026 -1.10248,-0.8654 -0.5598,0.5598 0.37553,0.98622 0.93469,1.54122 1.24258,1.23333 0.30789,-0.30789 6.4e-4,-1.11479 -0.68278,-1.79313 z m 5.05924,0.05 c -0.71756,-0.71756 -1.18333,-0.7766 -1.18333,-0.15 0,0.56834 0.3,1.33334 0.66667,1.7 0.36666,0.36667 0.89916,0.43417 1.18333,0.15 0.28417,-0.28416 -0.0158,-1.04916 -0.66667,-1.7 z m 16.62793,-8.78333 c 1.14284,-2.75 1.76534,-5.03086 1.38332,-5.06858 -8.85479,-0.87424 -18.27624,-0.87256 -17.73501,0.003 0.36215,0.58598 1.98191,1.06542 3.59945,1.06542 2.82476,0 3.36802,0.72008 3.01776,4 -0.13734,1.28619 -0.0226,1.29535 0.80531,0.0643 0.789,-1.17327 1.24651,-1.20246 2.50297,-0.15969 0.84562,0.7018 1.81024,2.13536 2.1436,3.1857 0.96741,3.04802 2.05896,2.26036 4.2826,-3.09031 z m 3.1044,-11.25 c 0.46817,-1.2375 0.76469,-2.35149 0.65892,-2.47552 -0.76006,-0.89139 -10.7132,1.32831 -12.65724,2.82276 l -2.41734,1.85829 6.78222,0.0222 c 6.12475,0.0201 6.86475,-0.19588 7.63344,-2.22776 z m -12.72816,-2.43311 c -0.72188,-0.28887 -1.58438,-0.25335 -1.91667,0.0789 -0.33229,0.3323 0.25834,0.56864 1.3125,0.52522 1.16495,-0.048 1.4019,-0.28494 0.60417,-0.60416 z m 14.29765,-4.46871 c 0.30906,-0.30906 0.27819,-1.30133 -0.0686,-2.20505 -0.53448,-1.39284 -2.40402,-1.64521 -12.27354,-1.65678 -6.40365,-0.008 -12.54301,-0.16793 -13.64301,-0.35648 -1.1,-0.18855 -1.43916,-0.14973 -0.75368,0.0863 0.89931,0.30962 0.96568,0.95347 0.23839,2.31243 -0.93656,1.74998 -0.49372,1.91132 6.25368,2.27848 9.23503,0.50253 19.51843,0.26947 20.24676,-0.45887 z m -44.73515,-22.58322 c -3.32473,-0.26216 -4.75,-0.81226 -4.75,-1.83332 0,-0.80233 -0.5625,-2.41147 -1.25,-3.57586 -1,-1.69367 -1,-2.20762 0,-2.56977 0.6875,-0.24897 1.25,-1.31518 1.25,-2.36934 0,-1.67593 0.75362,-1.91667 6,-1.91667 5.33333,0 6,0.22222 6,2 0,1.75277 -0.66667,2 -5.39301,2 -3.99523,0 -5.55033,0.40997 -6,1.58179 -0.90368,2.35496 -0.84436,2.41821 2.26801,2.41821 5.72436,0 9.125,1.1646 9.125,3.125 0,1.03125 -0.5625,1.79389 -1.25,1.69475 -0.6875,-0.0991 -3.3875,-0.34879 -6,-0.55479 z M 251.39,318.30494 c -0.76764,-0.48607 -1.16321,-1.49168 -0.87904,-2.23468 0.37693,-0.98553 2.17447,-1.25929 6.64572,-1.01211 5.24924,0.29019 6.12904,0.61317 6.12904,2.25 0,1.64083 -0.74266,1.90901 -5.25,1.89587 -2.8875,-0.008 -5.87807,-0.41301 -6.64572,-0.89908 z m 19.89572,-0.58561 c 0,-2.00981 7.77318,-1.98613 10.44113,0.0318 1.77409,1.34186 1.40837,1.4682 -4.25,1.4682 -4.83656,0 -6.19113,-0.32819 -6.19113,-1.5 z m 24.01962,-6.24346 c -2.46421,-0.21673 -4.93921,-0.75951 -5.5,-1.20618 -0.56079,-0.44667 -4.0543,-0.36651 -7.76336,0.17814 -7.22329,1.0607 -10.0206,0.62401 -9.2284,-1.44065 0.37946,-0.98894 4.3793,-1.24908 17.23315,-1.12081 9.20644,0.0919 17.30149,0.20437 17.98899,0.25 0.6875,0.0456 1.25,0.98296 1.25,2.08296 0,2.11572 -2.08282,2.30292 -13.98038,1.25654 z m 16.17001,-2.92924 c 0.43627,-5.16254 2.55894,-5.46218 2.6292,-0.37114 0.0407,2.94992 -0.34934,4.04384 -1.44187,4.04384 -1.11473,0 -1.41833,-0.93911 -1.18733,-3.6727 z m -59.4491,-0.44309 c 0.4925,-1.88331 1.04694,-2.04812 5.04595,-1.5 2.47097,0.33869 5.31573,0.61579 6.32171,0.61579 1.21497,0 1.63579,0.5036 1.25344,1.5 -0.42736,1.11367 -2.19803,1.5 -6.875,1.5 -5.92197,0 -6.26624,-0.12676 -5.7461,-2.11579 z m 66.29662,-8.13421 c 0.0362,-5.11808 0.21451,-5.43672 7.09541,-12.68079 3.88204,-4.08694 7.74208,-8.47444 8.57786,-9.75 1.57259,-2.40009 4.28958,-3.16293 4.28958,-1.20437 0,0.61316 -3.45925,4.66954 -7.68722,9.01418 -7.60199,7.81177 -7.69201,7.96571 -8.12019,13.88516 -0.36441,5.03803 -0.73062,5.98582 -2.31278,5.98582 -1.60576,0 -1.87439,-0.76538 -1.84266,-5.25 z m 4.97816,0.5 c 0.0111,-3.43547 0.28358,-4.33489 0.98469,-3.25 1.27768,1.97706 1.27768,8 0,8 -0.55,0 -0.99311,-2.1375 -0.98469,-4.75 z m -38.1527,-3.67175 c -0.36706,-4.46794 -0.0969,-5.24771 2.92967,-8.45684 2.63595,-2.79492 3.51637,-3.24004 4.20492,-2.12594 0.59607,0.96446 0.0964,2.18366 -1.58341,3.86346 -1.34987,1.34987 -2.70229,3.62133 -3.00538,5.04769 -1.30826,6.15666 -2.13286,6.69811 -2.5458,1.67163 z m -28.76293,0.73077 c -0.0548,-1.75504 0.35032,-3.4691 0.90032,-3.80902 1.14998,-0.71073 1.14998,0.90919 0,4.5 -0.76461,2.38749 -0.80513,2.35639 -0.90032,-0.69098 z m 4.91563,-0.5 c -0.008,-2.03004 0.43469,-3.9691 0.98469,-4.30902 1.28978,-0.79713 1.28978,4.50421 0,6.5 -0.72257,1.11809 -0.97327,0.56026 -0.98469,-2.19098 z m 4.36955,0.58824 c -0.43291,-1.72483 -0.11413,-3.6069 0.89169,-5.26457 2.20359,-3.6317 4.02981,-4.06868 2.73139,-0.65357 -0.55437,1.45809 -1.00794,3.72023 -1.00794,5.02696 0,3.42831 -1.82249,4.04937 -2.61514,0.89118 z m 6.02578,0.10274 c -0.3451,-1.375 -0.33063,-3.68266 0.0322,-5.12813 0.71194,-2.83673 5.69124,-8.37187 7.53113,-8.37187 1.16695,0 -3.2144,6.54431 -5.85804,8.75 -0.95307,0.79519 -1.0648,1.25 -0.30706,1.25 0.65681,0 1.19113,1.34575 1.19113,3 0,3.63614 -1.71893,3.96806 -2.58936,0.5 z m 6.01027,0.0409 c -1.30401,-5.19559 2.44558,-11.65849 7.57909,-13.06351 2.21502,-0.60625 2.31057,-0.52997 0.83817,0.66918 -2.29914,1.87246 -5.83817,8.86157 -5.83817,11.5296 0,3.21695 -1.83436,3.83198 -2.57909,0.86473 z m -20.42091,-6.41846 c 0,-0.48265 0.74867,-1.49515 1.66372,-2.25 1.5086,-1.24448 1.55194,-1.16266 0.46482,0.87756 -1.23991,2.32696 -2.12854,2.89993 -2.12854,1.37244 z m 55.98853,-0.70577 c -0.0114,-0.90857 -4.71044,-3.29906 -10.48853,-5.3357 l -3,-1.05743 3.5,0.55971 c 6.01447,0.96182 9.79954,2.45198 10.43511,4.10825 0.33658,0.87711 0.37637,1.83035 0.0884,2.1183 -0.28795,0.28794 -0.5287,0.11103 -0.53501,-0.39313 z m -62.88449,-9.57973 c -4.96857,-6.14057 -4.981,-6.1742 -3.40655,-9.21885 0.86912,-1.68069 4.2035,-5.67908 7.40974,-8.88532 20.39577,-20.39577 57.08124,-17.27031 73.38212,6.25186 l 2.75368,3.97357 -6.27315,7.07578 -6.27315,7.07578 -3.59837,-3.49938 c -1.9791,-1.92465 -6.74836,-4.98685 -10.59836,-6.80488 -6.13332,-2.89624 -8.20137,-3.34787 -16.70328,-3.64775 -9.39704,-0.33144 -9.93759,-0.22954 -17.12779,3.2288 -4.12849,1.98573 -8.79703,5.13425 -10.51617,7.09225 -1.70041,1.93666 -3.30998,3.5212 -3.57681,3.5212 -0.26683,0 -2.72919,-2.77337 -5.47191,-6.16306 z m 11.74435,3.90401 c 2.88961,-3.17375 10.38108,-6.49229 16.25504,-7.20059 l 4.39657,-0.53015 -4.68924,1.37578 c -5.25303,1.5412 -12.05313,5.41284 -11.39041,6.48513 0.23805,0.38517 -0.32165,0.73169 -1.24377,0.77004 -0.92212,0.0383 -2.57658,0.43184 -3.67658,0.87442 -1.80072,0.7245 -1.76601,0.54768 0.34839,-1.77463 z m 33.65161,0.25905 c 2.75248,-1.18278 3.731,-1.18278 3,0 -0.33992,0.55 -1.60398,0.96837 -2.80902,0.92971 -2.11236,-0.0678 -2.11922,-0.10112 -0.19098,-0.92971 z"
         id="path2852" />
      <path
         style="fill:#4e4e4e"
         d="m 274.28572,541.56582 c -20.67947,-1.97005 -38.89222,-7.59463 -48.63599,-15.02009 -3.97198,-3.02694 -7.96702,-8.93917 -8.67243,-12.83426 -0.79189,-4.37266 1.6199,-14.64155 4.65523,-19.82095 7.00749,-11.95738 27.26284,-20.59935 53.90319,-22.99786 l 4.75,-0.42766 0,8.71665 c 0,8.37028 0.10121,8.76276 2.54705,9.87716 3.61909,1.64897 8.61425,1.43627 11.35512,-0.48351 2.26146,-1.58399 2.33216,-2.03136 1.93589,-12.25 -0.22621,-5.83328 -0.25805,-9.6471 -0.0708,-8.47515 0.38306,2.39677 2.17959,2.83187 16.26104,3.9382 7.18907,0.56483 8.73942,0.41572 9.87244,-0.94949 0.73926,-0.89074 1.92663,-1.61953 2.6386,-1.61953 1.0867,0 14.13656,-6.44675 15.35311,-7.58457 1.17646,-1.10028 -2.62439,-3.41543 -5.60717,-3.41543 -4.23351,0 -9.53778,-3.58214 -6.83821,-4.61806 2.82501,-1.08406 26.47647,0.63421 36.55293,2.65555 5.225,1.04814 10.625,2.09581 12,2.32815 5.00548,0.84583 22.61533,6.71897 27,9.00491 7.15231,3.72883 6.46152,5.23216 -2.41878,5.2639 -4.11943,0.0147 -7.29115,-0.29478 -7.04826,-0.68779 0.73905,-1.1958 -4.88407,-3.02532 -8.56797,-2.78763 -2.14959,0.13869 -5.69928,1.76434 -9.35052,4.28226 -9.04952,6.24063 -10.99227,7.48986 -12.61447,8.11143 -4.44456,1.70301 -8.24474,4.03606 -9.06226,5.56362 -0.664,1.24069 -0.0705,3.63022 2.10742,8.4843 3.32348,7.40742 4.19041,17.14524 1.91889,21.55398 -5.10976,9.91738 -20.90908,18.09053 -41.46405,21.44976 -5.5,0.89885 -12.025,2.00375 -14.5,2.45534 -4.36106,0.79571 -20.88164,0.96491 -28,0.28677 z m 44.78212,-14.04406 3.71788,-1.69757 -3.27672,-0.36778 c -4.05604,-0.45525 -14.22328,1.57045 -14.22328,2.83382 0,1.57532 9.85204,1.02599 13.78212,-0.76847 z m -29.88366,-1.21851 c 0.91671,-0.58043 -1.32244,-1.10981 -6.5,-1.53674 -4.34415,-0.35821 -12.10097,-1.11285 -17.23737,-1.67699 -5.1364,-0.56414 -9.5688,-0.79582 -9.84977,-0.51484 -0.28097,0.28097 2.34654,1.41568 5.83891,2.52158 6.76337,2.14171 25.0179,2.93574 27.74823,1.20699 z m 6.44435,-80.58392 c 0.004,-4.4 0.17944,-6.07561 0.39069,-3.72357 0.21124,2.35204 0.20827,5.95204 -0.007,8 -0.21487,2.04796 -0.38771,0.12357 -0.38408,-4.27643 z m -0.14786,-20 c -0.0204,-1.65 0.18706,-2.44606 0.46099,-1.76903 0.27392,0.67703 0.29059,2.02703 0.0371,3 -0.25354,0.97297 -0.47766,0.41903 -0.49804,-1.23097 z m -15.19495,-6.98832 c 0,-8.72323 0.0221,-8.8017 1.97642,-7.03302 1.08703,0.98375 1.73767,2.17493 1.44588,2.64707 -0.2918,0.47214 -0.11046,1.60908 0.40297,2.52653 0.85902,1.53498 -1.20418,8.05998 -3.17021,10.02602 -0.36028,0.36028 -0.65506,-3.31469 -0.65506,-8.1666 z m -8.85017,-17.13924 c -0.0826,-1.72394 0.52335,-3.68624 1.35017,-4.37244 2.34907,-1.94956 1.84165,-2.7917 -3.25,-5.39386 -8.18438,-4.18274 -13.13362,-10.67448 -15.13812,-19.85614 -0.69042,-3.1625 -1.56319,-5.75 -1.93948,-5.75 -1.27443,0 -3.58486,-6.36251 -2.44803,-6.74146 0.58482,-0.19494 0.82752,-1.25613 0.53932,-2.3582 -0.49167,-1.88016 -0.19212,-1.96152 4.85616,-1.31899 7.03122,0.89491 10.51582,3.58323 6.13015,4.72932 -0.9625,0.25153 0.3562,0.50953 2.93045,0.57333 3.98627,0.0988 4.72784,0.43628 5,2.27548 0.41628,2.81316 1.29303,2.94462 21.0692,3.15897 12.29634,0.13328 16.74974,0.50185 16.75,1.38624 7.4e-4,2.51399 -11.08203,2.7712 -39.49965,0.9167 -2.75,-0.17946 -3.3057,-0.14148 -1.2349,0.0844 2.56014,0.27925 4.25953,1.16526 5.31,2.76848 1.95344,2.98133 4.95362,4.34594 3.98072,1.8106 -0.48411,-1.26158 0.044,-1.06995 1.92729,0.69927 1.42679,1.34039 3.08378,4.38153 3.6822,6.75808 0.73591,2.92256 2.26069,5.31999 4.71137,7.40773 3.13697,2.67241 3.30197,3.01125 1.22927,2.52434 -1.79699,-0.42213 -2.10873,-0.27707 -1.25,0.58166 0.62923,0.62923 1.14405,2.17905 1.14405,3.44405 0,1.78667 0.55797,2.3 2.5,2.3 1.375,0 2.5,-0.41968 2.5,-0.93261 0,-1.39311 3.98152,-2.42697 8.5,-2.20715 2.2,0.10702 5.31507,-0.5063 6.92237,-1.36295 2.33899,-1.24661 3.09263,-1.30199 3.77532,-0.27741 0.6291,0.94416 1.69926,0.29594 4.07763,-2.46992 3.81015,-4.43091 5.53409,-4.92877 3.16202,-0.91317 -1.87561,3.17516 -5.37205,5.19752 -13.34445,7.71851 -4.29066,1.35676 -7.77039,1.60551 -16.85279,1.2047 -6.29512,-0.2778 -10.90138,-0.1687 -10.23613,0.24245 1.87194,1.15692 -0.49491,2.16342 -3.38292,1.43858 -2.13705,-0.53637 -2.52838,-0.23648 -2.89615,2.2194 l -0.42524,2.83957 -0.14983,-3.12756 z m 7.85017,-10.90299 c 0,-0.2918 -1.58175,-1.91935 -3.515,-3.61677 -2.33126,-2.04687 -3.88815,-4.56808 -4.623,-7.48644 -1.43303,-5.6911 -3.40832,-7.12543 -2.42486,-1.7608 0.93427,5.09638 3.59205,9.64959 6.35181,10.88169 1.21608,0.54292 2.21105,1.33042 2.21105,1.75 0,0.41958 0.45,0.76287 1,0.76287 0.55,0 1,-0.23875 1,-0.53055 z m 1.97389,-3.21945 c -1.68171,-1.5125 -3.66655,-4.53425 -4.41077,-6.715 -1.494,-4.37784 -3.56312,-5.88678 -3.56312,-2.59846 0,2.5654 4.27699,9.54454 6.72089,10.96707 3.50247,2.03869 4.25466,1.04602 1.253,-1.65361 z m -12.5081,-2.41955 c -1.95775,-2.16699 -3.46579,-4.89708 -3.46579,-6.27431 0,-2.3973 -1.59605,-4.29342 -2.69171,-3.19776 -0.92454,0.92454 2.67989,8.99123 5.01448,11.22238 3.82,3.65073 4.7441,2.23566 1.14302,-1.75031 z m -4.07074,0.91955 c -0.39764,-0.6875 -1.5492,-2.44447 -2.55902,-3.90437 -1.00981,-1.4599 -1.83603,-3.8224 -1.83603,-5.25 0,-1.4276 -0.45,-2.59563 -1,-2.59563 -2.3841,0 0.18265,8.86217 3.25084,11.2241 2.69896,2.07769 3.09841,2.17566 2.14421,0.5259 z m -5.39505,-18.13342 c 0,-0.21089 -1.11138,-0.59588 -2.46974,-0.85555 -1.35835,-0.25966 -2.2318,-0.0871 -1.94098,0.38343 0.51208,0.82856 4.41072,1.24587 4.41072,0.47212 z m -1,-4.18232 c 0,-1.73665 -2.3089,-4.43213 -3.78518,-4.41895 -1.03968,0.009 -1.29239,0.30457 -0.64188,0.75 0.59012,0.40408 1.3635,1.52219 1.71862,2.48469 0.58876,1.59575 2.70844,2.52257 2.70844,1.18426 z m 42.55887,36.09754 c 2.49809,-1.88945 3.44113,-1.89817 3.44113,-0.0318 0,0.96174 -0.96568,1.5 -2.69113,1.5 -2.58095,0 -2.61166,-0.0601 -0.75,-1.4682 z m -10.23418,-11.1433 c -4.33816,-2.13944 -6.35324,-4.5812 -7.32071,-8.87084 -0.69646,-3.08801 -0.57264,-3.58124 0.83112,-3.3109 0.9377,0.18059 1.87062,1.60695 2.16194,3.30545 0.40918,2.38569 1.0835,3.05328 3.34614,3.31275 1.61238,0.1849 3.60179,-0.37017 4.61584,-1.28787 1.08727,-0.98397 4.26297,-1.79559 8.14471,-2.08157 8.00889,-0.59003 9.655,-1.11999 10.35792,-3.3347 0.331,-1.04288 1.4881,-1.74464 2.80115,-1.69885 l 2.2372,0.078 0.5,-33.16799 c 0.275,-18.2424 0.725,-33.3702 1,-33.61734 0.275,-0.24714 2.19338,-0.75554 4.26306,-1.12977 2.83512,-0.51264 3.90085,-0.32133 4.32187,0.77584 0.30735,0.80094 0.18898,15.96197 -0.26305,33.69117 -0.78409,30.75294 -0.91383,32.28579 -2.82188,33.3415 -1.1,0.60863 -2.225,1.33159 -2.5,1.60659 -0.5052,0.5052 -0.98236,0.57894 -5.5,0.85 -2.15817,0.12949 -2.5,0.62505 -2.5,3.62432 0,4.21042 -2.09544,5.51477 -12.69741,7.90382 -8.51874,1.91961 -7.1092,1.91828 -10.9779,0.0104 z m -37.72766,-9.6385 c -0.79699,-1.2375 -1.77795,-4.05 -2.17991,-6.25 -0.66661,-3.64849 -0.58523,-3.87939 0.92602,-2.62756 0.91127,0.75485 1.65686,2.69693 1.65686,4.31575 0,1.61881 0.46583,3.81371 1.03518,4.87755 1.43265,2.67692 0.33386,2.43568 -1.43815,-0.31574 z m 56.40297,-12.25 c 0,-0.83333 0.88889,-1.5 2,-1.5 1.11111,0 2,0.66667 2,1.5 0,0.83333 -0.88889,1.5 -2,1.5 -1.11111,0 -2,-0.66667 -2,-1.5 z m -37.25,-5.18933 c -0.9625,-0.25152 -1.75,-1.0647 -1.75,-1.80704 0,-1.08622 3.36778,-1.32241 17.25,-1.20977 9.4875,0.077 17.89827,-0.0701 18.69061,-0.32695 0.79234,-0.2568 1.60118,0.26007 1.79742,1.14861 0.25059,1.13454 -0.58767,1.80441 -2.81561,2.25 -3.5333,0.70666 -30.42859,0.66219 -33.17242,-0.0549 z m 38.25,-2.31067 c 0,-1.50615 0.52215,-2.04609 1.75,-1.80963 0.9625,0.18536 1.75,0.99969 1.75,1.80963 0,0.80994 -0.7875,1.62427 -1.75,1.80963 -1.22785,0.23646 -1.75,-0.30348 -1.75,-1.80963 z m -36.5,-5.9484 c -4.91055,-0.67717 -5.80591,-3.67443 -1,-3.34756 9.02746,0.614 31.31619,0.55372 33.25,-0.0899 1.82114,-0.60614 2.25,-0.37648 2.25,1.20496 0,1.54348 -0.92736,2.09291 -4.41538,2.61597 -4.85702,0.72835 -23.77036,0.4873 -30.08462,-0.38344 z m 36.5,-2.0516 c 0,-1.1 0.6,-2 1.33333,-2 1.88088,0 2.61836,0.96233 1.99078,2.59777 -0.81623,2.12706 -3.32411,1.67607 -3.32411,-0.59777 z m -56.75,0.2766 c -2.44762,-0.30374 -3.25,-0.89657 -3.25,-2.40123 0,-1.80606 0.45612,-1.93685 4.75,-1.36199 6.46719,0.86581 7.25,1.1849 7.25,2.95524 0,1.55369 -1.57161,1.69881 -8.75,0.80798 z m 29.55098,-6.05563 c -11.33441,-0.24705 -12.80098,-0.47619 -12.80098,-2 0,-1.56758 1.6935,-1.72097 19,-1.72097 17.04156,0 19,0.17123 19,1.66118 0,2.00658 -5.81895,2.48223 -25.19902,2.05979 z m 27.19902,-2.22097 c 0,-1.11111 0.66667,-2 1.5,-2 0.83333,0 1.5,0.88889 1.5,2 0,1.11111 -0.66667,2 -1.5,2 -0.83333,0 -1.5,-0.88889 -1.5,-2 z m -55.75,0.26779 c -3.4833,-0.31373 -4.25,-0.75014 -4.25,-2.41913 0,-1.8782 0.40769,-1.98231 5.25,-1.34068 2.8875,0.38262 5.63829,1.06063 6.11287,1.50671 1.0971,1.03121 -0.0987,3.04138 -1.67189,2.8106 -0.65504,-0.0961 -3.10348,-0.34696 -5.44098,-0.5575 z m 20,-7 c -2.7548,-0.24811 -4.25,-0.86674 -4.25,-1.7584 0,-1.12365 3.5463,-1.35678 19.362,-1.27279 18.24429,0.0969 19.33437,0.20848 18.88337,1.93311 -0.43903,1.67887 -1.68928,1.81584 -15.112,1.65558 -8.04835,-0.0961 -16.54587,-0.34696 -18.88337,-0.5575 z m 36.75,-1.88251 c 0,-1.59686 0.46782,-2.39618 1.25,-2.13575 1.86835,0.62209 2.07227,3.41283 0.29909,4.09326 -1.1494,0.44106 -1.54909,-0.064 -1.54909,-1.95751 z m -59.75,-0.0476 c -2.13682,-0.86222 -1.39249,-3.33841 1,-3.32671 4.98925,0.0244 9.75,1.30362 9.75,2.61984 0,0.97779 -1.35775,1.34659 -4.75,1.29021 -2.6125,-0.0434 -5.3125,-0.30592 -6,-0.58334 z m 39.75,-6.42605 c -3.025,-0.48414 -8.9875,-0.60422 -13.25,-0.26684 -7.13467,0.56472 -7.75004,0.46422 -7.75051,-1.26571 -4.8e-4,-1.78155 0.99907,-1.86746 19.25,-1.65448 17.68757,0.2064 19.25051,0.36878 19.25051,2 0,1.487 -0.97454,1.79907 -6,1.92132 -3.3,0.0803 -8.475,-0.25015 -11.5,-0.73429 z m 20,-1.995 c 0,-2.43705 2.33677,-2.09257 2.82332,0.4162 0.19138,0.98676 -0.31876,1.66713 -1.25,1.66713 -0.92763,0 -1.57332,-0.855 -1.57332,-2.08333 z m -60.50465,0.24535 c -1.67719,-1.67719 -0.14356,-3.16074 3.25465,-3.14837 5.27021,0.0192 8.25,0.97792 8.25,2.65437 0,1.09955 -1.28607,1.38273 -5.50465,1.21205 -3.02755,-0.12248 -5.72755,-0.44561 -6,-0.71805 z m 39.50465,-7.51741 c 0,-0.9437 2.05029,-1.54904 6.75,-1.9929 11.05264,-1.04385 12.25,-0.91206 12.25,1.34829 0,1.85965 -0.66667,2 -9.5,2 -7.32732,0 -9.5,-0.30998 -9.5,-1.35539 z m 21,-0.64461 c 0,-1.28889 0.50641,-1.99786 1.25,-1.75 0.6875,0.22917 1.25,1.01667 1.25,1.75 0,0.73333 -0.5625,1.52083 -1.25,1.75 -0.74359,0.24786 -1.25,-0.46111 -1.25,-1.75 z m -57.75,0.2766 c -1.97136,-0.24464 -3.25,-0.96853 -3.25,-1.83996 0,-1.10151 1.51629,-1.43664 6.5,-1.43664 5.83333,0 6.5,0.20513 6.5,2 0,2.08567 -1.57194,2.29149 -9.75,1.2766 z m 17.75,-0.7766 c 0,-1.95515 5.57983,-1.95515 9,0 2.38733,1.36472 2.24085,1.43073 -3.25,1.46456 -4.46019,0.0275 -5.75,-0.30103 -5.75,-1.46456 z m 25.52539,-6.24421 c -2.73603,-0.21105 -5.55181,-0.86276 -6.25728,-1.44824 -0.8333,-0.69158 -4.0829,-0.82026 -9.27539,-0.36732 -7.12346,0.62139 -7.99272,0.51271 -7.99272,-0.99931 0,-1.42843 0.65339,-1.59206 4.13455,-1.03539 2.27401,0.36362 10.14901,0.66114 17.5,0.66114 12.62327,0 13.36545,0.10921 13.36545,1.96666 0,2.09388 -0.0744,2.10181 -11.47461,1.22246 z m 14.47461,-1.17246 c 0,-1.22833 0.64569,-2.08333 1.57332,-2.08333 0.93124,0 1.44138,0.68037 1.25,1.66713 -0.48655,2.50877 -2.82332,2.85325 -2.82332,0.4162 z m -59,-2.19996 c 0,-1.70702 0.43542,-1.99994 2.25,-1.51366 1.2375,0.33164 4.14838,0.60913 6.46862,0.61664 3.33581,0.0108 4.09816,0.32755 3.64301,1.51365 -0.42155,1.09852 -2.15288,1.5 -6.46862,1.5 -5.33458,0 -5.89301,-0.20057 -5.89301,-2.11663 z m 4,-10.32435 c 0,-1.34254 0.36858,-2.66878 0.81906,-2.94719 0.45048,-0.27841 0.6244,0.82003 0.3865,2.44098 -0.52454,3.57389 -1.20556,3.85985 -1.20556,0.50621 z m 5.03063,-0.059 c 0,-1.65 0.43621,-3.675 0.96937,-4.5 0.74375,-1.15087 0.96937,-0.80174 0.96937,1.5 0,1.65 -0.43621,3.675 -0.96937,4.5 -0.74375,1.15087 -0.96937,0.80174 -0.96937,-1.5 z m 4.98468,-0.19098 c 0.008,-1.54496 0.45153,-3.48402 0.98469,-4.30902 0.72257,-1.11809 0.97327,-0.56026 0.98469,2.19098 0.008,2.03004 -0.43469,3.9691 -0.98469,4.30902 -0.5771,0.35667 -0.99352,-0.5699 -0.98469,-2.19098 z m 5.98469,0.30901 c 0,-1.375 0.45,-2.77811 1,-3.11803 0.56481,-0.34907 1,0.46994 1,1.88197 0,1.375 -0.45,2.77811 -1,3.11803 -0.56481,0.34907 -1,-0.46994 -1,-1.88197 z m 13.3129,-1.1588 c 0.36033,-2.22044 1.73543,-4.93329 3.24682,-6.40548 l 2.62178,-2.55375 -2.08701,3.5 c -1.14786,1.925 -2.0887,4.48594 -2.09075,5.69098 -0.002,1.20504 -0.52397,2.51251 -1.15981,2.90548 -0.83575,0.51652 -0.98288,-0.35276 -0.53103,-3.13723 z m 33.35209,1.3677 c -0.39493,-1.51021 0.30334,-3.16577 2.28918,-5.42752 3.27176,-3.72632 4.98716,-3.41158 2.01308,0.36936 -1.08199,1.37552 -1.96725,3.56526 -1.96725,4.86609 0,2.96595 -1.57573,3.09557 -2.33501,0.19207 z m -40.66499,-0.64547 c 0,-1.06511 0.61335,-2.44561 1.363,-3.06776 1.10364,-0.91594 1.27121,-0.651 0.8806,1.39233 -0.59291,3.10161 -2.2436,4.33428 -2.2436,1.67543 z m -4,-6.12244 c 0,-0.51754 0.44485,-1.21592 0.98855,-1.55194 0.56686,-0.35034 0.7345,0.0511 0.39301,0.94098 -0.66479,1.73242 -1.38156,2.04939 -1.38156,0.61096 z m 6,0.096 c 0,-0.46476 0.96966,-1.70226 2.1548,-2.75 l 2.1548,-1.90499 -1.76981,2.75 c -1.82487,2.83556 -2.53979,3.37179 -2.53979,1.90499 z m -29.70847,-10.27965 -5.00024,-6.25473 2.07587,-3.5603 c 8.01209,-13.74145 27.19417,-23.24067 43.63284,-21.60755 16.57045,1.64621 28.69289,8.29618 36.85102,20.21522 l 2.16837,3.16799 -6.15715,7.08358 -6.15716,7.08359 -3.53431,-3.63917 c -1.94388,-2.00155 -6.49002,-5.03975 -10.10255,-6.75157 -5.83078,-2.76296 -7.76213,-3.15006 -17.20219,-3.4478 -10.23101,-0.32268 -10.8752,-0.21623 -17,2.80916 -3.50132,1.7295 -8.21288,4.94719 -10.47015,7.15043 l -4.10412,4.00588 -5.00023,-6.25473 z m 10.70847,5.40477 c 0,-1.43146 5.68936,-5.25923 10.16304,-6.83763 6.26269,-2.20961 6.89478,-1.70157 1.33696,1.07455 -2.75,1.37362 -6.4625,3.43564 -8.25,4.58228 -1.7875,1.14664 -3.25,1.678 -3.25,1.1808 z m 71,-4.72109 c 0,-0.24254 0.45,-0.7191 1,-1.05902 0.55,-0.33992 1,-0.14148 1,0.44098 0,0.58246 -0.45,1.05902 -1,1.05902 -0.55,0 -1,-0.19844 -1,-0.44098 z"
         id="path2850" />
      <path
         style="fill:#2d2d2d"
         d="m 271.78572,541.1837 c -28.522,-2.6676 -50.97174,-13.42816 -54.2274,-25.99216 -1.14114,-4.40382 0.35191,-14.31587 2.91241,-19.33487 2.89008,-5.66501 9.59494,-11.6829 17.22546,-15.46055 8.4365,-4.17666 23.5932,-8.09364 34.33953,-8.87444 l 8.25,-0.59941 0,8.44853 c 0,9.25668 0.76302,10.84853 5.2,10.84853 2.43453,0 2.8,0.38543 2.8,2.95295 0,3.29322 1.86709,8.04705 3.16052,8.04705 1.2296,0 0.94278,-4.04675 -0.53156,-7.5 -1.2369,-2.89708 -1.17531,-3.03431 1.7951,-4 l 3.07594,-1 0.28441,-9.0148 0.28442,-9.01479 8.71558,0.69736 c 18.61067,1.48911 31.22107,5.24666 40.86522,12.17669 5.82254,4.18392 8.67341,7.86403 11.34744,14.6481 3.88308,9.85146 2.09046,19.91103 -4.65549,26.1249 -5.78292,5.3268 -20.3636,11.88254 -26.42808,11.88254 -1.4607,0 -9.52177,1.35 -17.9135,3 -15.49794,3.04724 -21.4798,3.36917 -36.5,1.96437 z m 50.92879,-13.06119 c 2.71084,-1.36176 5.11084,-3.02206 5.33333,-3.68955 0.54459,-1.63377 -6.71595,-1.55652 -18.26212,0.19428 -4.95,0.7506 -9.675,1.02753 -10.5,0.61542 -0.825,-0.41212 -7.8,-1.0379 -15.5,-1.39062 -7.7,-0.35272 -18.49238,-1.28449 -23.98307,-2.0706 -5.49069,-0.78612 -10.14223,-1.27014 -10.33676,-1.07561 -0.91262,0.91261 5.52878,3.92887 12.0681,5.65101 5.37537,1.41562 10.74481,1.91796 20.75173,1.94146 10.03699,0.0236 14.1413,0.40909 16,1.50291 4.07263,2.3967 18.25621,1.42203 24.42879,-1.6787 z m -36.62192,-36.42964 c -0.30789,-0.30789 -0.86705,0.24711 -1.24258,1.23333 -0.54268,1.4252 -0.42782,1.54006 0.5598,0.5598 0.68342,-0.67834 0.99067,-1.48524 0.68278,-1.79313 z m -6.80687,-98.47354 c 0,-2 0.5,-3 1.5,-3 1,0 1.5,1 1.5,3 0,2 -0.5,3 -1.5,3 -1,0 -1.5,-1 -1.5,-3 z m 20.25,1.31067 c 0.9625,-0.25152 2.5375,-0.25152 3.5,0 0.9625,0.25153 0.175,0.45733 -1.75,0.45733 -1.925,0 -2.7125,-0.2058 -1.75,-0.45733 z m -16.96877,-6.56067 c -3.40288,-2.3997 -4.75126,-4.53425 -5.74705,-9.09787 -0.4532,-2.07698 -0.27222,-2.73148 0.66859,-2.41787 0.7095,0.2365 1.54746,2.01391 1.86213,3.94981 0.36851,2.26714 1.79337,4.62975 4.00362,6.63856 4.0441,3.67553 3.6942,4.0877 -0.78729,0.92737 z m 11.96877,0.56067 c 0.9625,-0.25152 2.5375,-0.25152 3.5,0 0.9625,0.25153 0.175,0.45733 -1.75,0.45733 -1.925,0 -2.7125,-0.2058 -1.75,-0.45733 z m -19.47587,-2.2615 c -2.6272,-3.06834 -3.77512,-5.73549 -3.75882,-8.73343 0.0119,-2.18545 0.2323,-2.47997 0.98469,-1.31574 0.53316,0.825 0.97627,2.596 0.98469,3.93555 0.008,1.33955 0.99208,3.47528 2.18592,4.74606 1.19384,1.27078 1.95731,2.52381 1.69661,2.78451 -0.26071,0.2607 -1.2026,-0.37693 -2.09309,-1.41695 z m 13.52823,0.93904 c -2.4505,-0.98685 -5.30236,-5.79443 -5.30236,-8.93855 0,-3.00776 1.86347,-2.49886 2.56447,0.70034 1.05771,4.82711 1.40526,5.42932 3.44058,5.96157 1.09722,0.28693 1.99495,1.14421 1.99495,1.90506 0,0.76085 -0.1125,1.35485 -0.25,1.31998 -0.1375,-0.0349 -1.23894,-0.46164 -2.44764,-0.9484 z m -20.65381,-3.77385 c -1.4567,-2.10202 -2.64166,-5.14767 -2.63324,-6.76811 0.0118,-2.26985 0.23787,-2.60188 0.98469,-1.44625 0.53316,0.825 0.97627,2.596 0.98469,3.93555 0.008,1.33955 0.99208,3.47528 2.18592,4.74606 1.19384,1.27078 1.93568,2.54543 1.64855,2.83256 -0.28713,0.28713 -1.7139,-1.19778 -3.17061,-3.29981 z m -3.77611,1.03564 c -1.24387,-1.58606 -1.2085,-1.62143 0.37756,-0.37756 0.9625,0.75485 1.75,1.54235 1.75,1.75 0,0.82304 -0.82119,0.29331 -2.12756,-1.37244 z m -5.41356,-1.31653 c -0.36253,-0.58659 -0.44468,-1.281 -0.18255,-1.54313 0.26212,-0.26213 0.74306,0.21781 1.06875,1.06653 0.67618,1.76211 0.0999,2.07206 -0.8862,0.4766 z m 2.28209,-3.26526 c -0.40753,-1.00748 -0.72729,-2.80748 -0.71056,-4 0.0277,-1.97598 0.1222,-2.01051 1.06578,-0.38945 0.56946,0.97831 0.88921,2.77831 0.71056,4 -0.29246,1.99999 -0.39862,2.03878 -1.06578,0.38945 z m -5.0118,-2.27238 c -0.40104,-0.40104 -0.71549,-1.66666 -0.69876,-2.8125 0.0281,-1.92359 0.11018,-1.94626 1.07077,-0.29565 1.11861,1.92211 0.83248,4.31265 -0.37201,3.10815 z m 62.27083,-31.62542 c 0,-16.2202 0.28617,-31.57908 0.63592,-34.13084 l 0.63593,-4.63957 4.35065,0 4.35064,0 -0.61431,32.75 c -0.33787,18.0125 -0.93316,33.10384 -1.32288,33.53631 -0.38971,0.43247 -2.35723,1.05384 -4.37226,1.38084 l -3.66369,0.59453 0,-29.49127 z m -41.42245,23.32249 c -2.70735,-0.3261 -5.06991,-1.0429 -5.25014,-1.5929 -0.21023,-0.64159 6.0779,-1 17.54443,-1 12.94635,0 17.75197,0.31359 17.4362,1.13779 -0.23974,0.62578 -1.81338,1.41328 -3.49697,1.75 -3.61815,0.72363 -19.23483,0.54808 -26.23352,-0.29489 z m -19.34291,-2.15294 c -4.81759,-0.94978 -6.23464,-1.6341 -6.23464,-3.01079 0,-0.54444 1.82151,-0.70645 4.25,-0.37801 7.43179,1.00511 8.75,1.45223 8.75,2.96789 0,1.62495 -0.50022,1.65607 -6.76536,0.42091 z m 52.01489,-0.18996 c 0.63003,-1.89219 3.75047,-2.1612 3.75047,-0.32332 0,0.92763 -0.855,1.57332 -2.08333,1.57332 -1.22198,0 -1.91126,-0.51682 -1.66714,-1.25 z m -35.49953,-5.47847 c -2.0625,-0.21574 -3.75,-0.93922 -3.75,-1.60773 0,-0.91109 4.63266,-1.209 18.49932,-1.18963 12.96349,0.0181 18.49952,0.36073 18.5,1.14499 3.7e-4,0.61553 -1.68682,1.39808 -3.74932,1.73899 -3.91598,0.64727 -23.02031,0.59118 -29.5,-0.0866 z m 36.25,-2.30291 c 0,-1.08322 0.67464,-1.96862 1.5,-1.96862 0.825,0 1.5,0.62686 1.5,1.39301 0,0.76616 -0.675,1.65203 -1.5,1.96862 -1.02029,0.39152 -1.5,-0.054 -1.5,-1.39301 z m -54.30085,0.0655 c -3.88279,-0.75171 -6.54024,-2.46265 -5.03628,-3.24249 1.84007,-0.95412 11.33713,1.37854 11.33713,2.78461 0,1.53748 -0.52675,1.57575 -6.30085,0.45788 z m 20.55085,-5.77452 c -4.40628,-0.2503 -6.25,-0.75344 -6.25,-1.7056 0,-1.0919 3.63891,-1.32216 18.99988,-1.20228 12.15598,0.0949 18.88055,0.50849 18.6686,1.14828 -0.68416,2.06524 -13.45113,2.78026 -31.41848,1.7596 z m -19.75,-1.91454 c -1.1,-0.23261 -3.0125,-0.63898 -4.25,-0.90305 -1.2375,-0.26406 -2.25,-1.15511 -2.25,-1.98011 0,-1.02562 0.71158,-1.35407 2.25,-1.03857 1.2375,0.25379 3.9375,0.73276 6,1.06437 2.33844,0.37597 3.75,1.1505 3.75,2.05761 0,1.42586 -1.50461,1.64464 -5.5,0.79975 z m 53.72917,-0.53256 c 0.61807,-1.85422 2.77083,-2.16176 2.77083,-0.39583 0,0.87083 -0.7125,1.58333 -1.58333,1.58333 -0.87084,0 -1.40521,-0.53437 -1.1875,-1.1875 z m -38.97917,-6.46317 c -0.6875,-0.2838 -1.25,-1.20358 -1.25,-2.04395 0,-1.20222 0.74,-1.38914 3.47106,-0.87679 4.81469,0.90324 29.66849,0.97928 32.44121,0.0993 1.85903,-0.59004 2.20714,-0.38562 1.9168,1.12559 -0.32718,1.70301 -1.71424,1.86076 -17.84192,2.02922 -9.61793,0.10046 -18.04965,-0.0495 -18.73715,-0.33333 z m 39.75,-1.84933 c 0,-0.825 0.45,-1.5 1,-1.5 0.55,0 1,0.675 1,1.5 0,0.825 -0.45,1.5 -1,1.5 -0.55,0 -1,-0.675 -1,-1.5 z m -59.25,-0.18933 c -0.9625,-0.25152 -1.75,-1.04405 -1.75,-1.76116 0,-0.95279 1.27889,-1.18106 4.75,-0.84781 6.13908,0.58938 7.51724,1.05688 6.75437,2.29124 -0.6191,1.00172 -6.41463,1.1905 -9.75437,0.31773 z m 27,-6.04571 c -2.80829,-0.22144 -4.75,-0.86312 -4.75,-1.56975 0,-0.88008 4.4823,-1.19521 17,-1.19521 12.08467,0 17,0.33049 17,1.14301 0,0.62866 -0.7118,1.41616 -1.58179,1.75 -1.62267,0.62268 -19.17777,0.54143 -27.66821,-0.12805 z m -8.75,-1.76496 c 0,-0.825 0.675,-1.5 1.5,-1.5 0.825,0 1.5,0.675 1.5,1.5 0,0.825 -0.675,1.5 -1.5,1.5 -0.825,0 -1.5,-0.675 -1.5,-1.5 z m 41,0 c 0,-0.825 0.45,-1.5 1,-1.5 0.55,0 1,0.675 1,1.5 0,0.825 -0.45,1.5 -1,1.5 -0.55,0 -1,-0.675 -1,-1.5 z m -58.75,-0.20573 c -1.2375,-0.23836 -2.25,-1.12956 -2.25,-1.98045 0,-1.11637 0.6264,-1.37921 2.25,-0.94411 1.2375,0.33164 3.92338,0.60913 5.96862,0.61664 2.89143,0.0106 3.59057,0.34731 3.14301,1.51365 -0.56317,1.46758 -4.0416,1.7708 -9.11163,0.79427 z m 28,-7.04015 c -13.87656,-0.43875 -13.27255,-2.25412 0.75,-2.25412 9.11111,0 11,0.25758 11,1.5 0,0.825 -0.3375,1.4051 -0.75,1.2891 -0.4125,-0.11599 -5.3625,-0.35673 -11,-0.53498 z m 14.75,-0.75412 c 0,-1.17949 1.38889,-1.5 6.5,-1.5 5.11111,0 6.5,0.32051 6.5,1.5 0,1.17949 -1.38889,1.5 -6.5,1.5 -5.11111,0 -6.5,-0.32051 -6.5,-1.5 z m 16,0 c 0,-0.825 0.45,-1.5 1,-1.5 0.55,0 1,0.675 1,1.5 0,0.825 -0.45,1.5 -1,1.5 -0.55,0 -1,-0.675 -1,-1.5 z m -56.75,-0.23221 c -3.03697,-0.27353 -4.25,-0.83185 -4.25,-1.95613 0,-1.26161 0.743,-1.45053 3.75,-0.95351 2.0625,0.34091 4.7625,0.62479 6,0.63084 1.32844,0.006 2.25,0.62538 2.25,1.51101 0,0.82846 -0.78346,1.42179 -1.75,1.32529 -0.9625,-0.0961 -3.6625,-0.34696 -6,-0.5575 z m 37.41667,-6.93446 c -1.65987,-1.65986 -0.0984,-2.10674 7.83333,-2.24185 7.01807,-0.11954 8.5,0.12138 8.5,1.38187 0,1.23894 -1.47626,1.52665 -7.83333,1.52665 -4.30834,0 -8.13334,-0.3 -8.5,-0.66667 z m 20.41228,-0.75 c -0.0434,-1.05416 0.19292,-1.64479 0.52522,-1.3125 0.33229,0.33229 0.36781,1.1948 0.0789,1.91667 -0.31922,0.79773 -0.55618,0.56078 -0.60416,-0.60417 z m -41.07895,-1.08333 c 0,-1.83121 0.34312,-1.83416 6,-0.0517 l 4.5,1.41792 -5.25,0.0669 c -4.02973,0.0514 -5.25,-0.28175 -5.25,-1.4331 z m -20,-1 c 0,-1.07812 1.10202,-1.5 3.91821,-1.5 4.42927,0 7.08179,0.78918 7.08179,2.10699 0,0.49115 -2.475,0.89301 -5.5,0.89301 -4.22222,0 -5.5,-0.34848 -5.5,-1.5 z m 40.45888,-6.56653 c -0.36253,-0.58659 -0.32748,-1.37409 0.0779,-1.75 0.40536,-0.37591 0.93792,-0.12097 1.18346,0.56653 0.52963,1.48296 3.27976,1.69259 3.27976,0.25 0,-0.55556 2.66667,-1 6,-1 4.66667,0 6,0.33333 6,1.5 0,1.2074 -1.549,1.5 -7.94098,1.5 -4.54555,0 -8.22283,-0.45603 -8.60014,-1.06653 z m 19.54112,-0.43347 c 0,-0.825 0.45,-1.5 1,-1.5 0.55,0 1,0.675 1,1.5 0,0.825 -0.45,1.5 -1,1.5 -0.55,0 -1,-0.675 -1,-1.5 z m -59,-1 c 0,-1.16667 1.33333,-1.5 6,-1.5 4.66667,0 6,0.33333 6,1.5 0,1.16667 -1.33333,1.5 -6,1.5 -4.66667,0 -6,-0.33333 -6,-1.5 z m 21,0.17319 c 0,-0.92792 0.97647,-1.18349 3.24805,-0.85009 2.77348,0.40706 2.95611,0.59064 1.25,1.25652 -3.04506,1.18844 -4.49805,1.05716 -4.49805,-0.40643 z M 261.30103,298.136 c 0.008,-1.32917 0.4578,-3.09167 0.99861,-3.91667 0.69179,-1.05532 0.79289,-0.46242 0.34104,2 -0.79139,4.31279 -1.35998,5.12629 -1.33965,1.91667 z m 5.07029,0.0833 c 0.0302,-1.375 0.44171,-3.4 0.9144,-4.5 0.73788,-1.71715 0.8672,-1.57572 0.9144,1 0.0302,1.65 -0.38124,3.675 -0.9144,4.5 -0.76401,1.18222 -0.95773,0.97037 -0.9144,-1 z m 5.92971,0.80902 c 0.008,-0.71996 0.45153,-1.98402 0.98469,-2.80902 0.78809,-1.21948 0.97224,-1.09025 0.98469,0.69098 0.008,1.20504 -0.43469,2.4691 -0.98469,2.80902 -0.55,0.33992 -0.99311,0.029 -0.98469,-0.69098 z m -15.85742,-1.80902 c 0,-1.375 0.22698,-1.9375 0.50439,-1.25 0.27741,0.6875 0.27741,1.8125 0,2.5 -0.27741,0.6875 -0.50439,0.125 -0.50439,-1.25 z m 30.74772,-4.82363 c 0.60783,-1.13574 1.59762,-2.36935 2.19954,-2.74135 0.78412,-0.48462 0.78107,-0.0909 -0.0108,1.38861 -0.60783,1.13574 -1.59762,2.36935 -2.19954,2.74135 -0.78412,0.48462 -0.78107,0.0909 0.0108,-1.38861 z m -36.3591,-11.42503 -4.75716,-5.94499 1.85532,-3.45604 c 5.25927,-9.79677 19.13835,-19.00795 31.8751,-21.15466 10.45322,-1.76184 23.79979,0.6238 33.14567,5.92462 5.30385,3.00826 16.33456,13.99288 16.33456,16.26632 0,0.69992 -2.51016,4.04641 -5.57814,7.43663 l -5.57815,6.16405 -4.67185,-3.93932 c -7.85538,-6.62366 -13.05446,-8.4069 -25.83549,-8.86137 -11.00268,-0.39123 -11.26209,-0.34858 -17.99409,2.95824 -3.75676,1.84535 -8.45231,4.97435 -10.43455,6.95335 l -3.60406,3.59816 -4.75716,-5.94499 z m 17.95349,0.24866 c 1.65,-1.09275 3.675,-1.97093 4.5,-1.9515 0.825,0.0194 -0.075,0.89761 -2,1.9515 -4.61235,2.52515 -6.31285,2.52515 -2.5,0 z"
         id="path2848" />
      <path
         style="fill:#171717"
         d="m 263.78572,538.05069 c -21.69009,-3.01397 -31.48801,-6.2734 -38.79559,-12.90596 -6.71179,-6.09181 -8.19084,-9.81338 -7.37449,-18.55557 0.50679,-5.42707 2.82644,-12.36983 4.13289,-12.36983 0.2263,0 0.16856,1.49673 -0.1283,3.32608 -1.07078,6.59846 4.29821,15.01197 14.82011,23.22394 4.15683,3.24425 14.86019,7.94303 23.84538,10.46812 7.91385,2.22402 12.43893,2.75428 30.61432,3.58743 15.20698,0.69708 23.68578,-0.24933 32.80674,-3.66192 6.28869,-2.3529 22.74239,-15.63434 26.97747,-21.77624 3.33095,-4.83068 4.61912,-12.89741 2.64778,-16.58087 -1.18738,-2.21865 -1.58862,-2.27528 -14.63358,-2.06569 -7.377,0.11852 -13.41257,-0.0627 -13.41236,-0.40268 2e-4,-0.33999 -2.3623,-0.67068 -5.25,-0.73486 -2.88771,-0.0642 -9.46702,-0.28918 -14.62071,-0.5 l -9.37033,-0.38331 0.61322,-6.5 c 0.33728,-3.575 0.61643,-7.5125 0.62034,-8.75 0.006,-2.017 0.49901,-2.24967 4.75711,-2.24681 2.6125,0.002 8.8,0.7062 13.75,1.56542 21.73599,3.77294 34.84389,11.56608 40.63567,24.15943 3.3895,7.36996 3.82445,15.85203 1.07241,20.91328 -1.97039,3.62373 -8.95051,9.69138 -14.13859,12.29034 -3.52808,1.76738 -25.06419,6.05623 -40.56949,8.07928 -9.01239,1.17589 -29.9387,1.07953 -39,-0.17958 z m -40.35976,-46.54848 c 6.19947,-9.15112 27.73013,-18.0097 48.3035,-19.87401 l 7.55626,-0.68473 0,8.53404 0,8.53404 -8.75,1.54072 c -18.25101,3.21368 -21.25,3.22506 -21.25,0.0806 0,-1.0769 -0.70994,-1.28135 -2.75,-0.79194 -1.5125,0.36286 -2.9336,0.81752 -3.15799,1.01038 -0.2244,0.19286 -1.03097,-0.16638 -1.79238,-0.79829 -0.97418,-0.8085 -1.69813,-0.83521 -2.44319,-0.0901 -0.65368,0.65368 -2.13914,0.74896 -3.88234,0.24901 -1.55296,-0.44538 -3.07661,-0.55673 -3.3859,-0.24744 -0.30929,0.30929 -1.66302,0.62114 -3.00829,0.69301 -1.34528,0.0719 -3.45749,1.01518 -4.69381,2.09626 l -2.24786,1.9656 1.502,-2.21712 z m 31.07411,-3.04476 c -1.87885,-0.62629 -4.44146,0.58539 -3.71704,1.75752 0.41139,0.66565 1.36926,0.61095 2.81072,-0.16049 1.41469,-0.75712 1.73465,-1.32092 0.90632,-1.59703 z m -8.21435,3.8209 c 0,-0.58246 0.45,-1.05902 1,-1.05902 0.55,0 1,0.19844 1,0.44098 0,0.24254 -0.45,0.7191 -1,1.05902 -0.55,0.33992 -1,0.14148 -1,-0.44098 z m 39.46822,-107.11044 c -1.49866,-2.42488 -2.32906,-8.06886 -1.12828,-7.6686 0.63406,0.21135 1.44451,2.14732 1.80101,4.30215 0.6975,4.21603 0.491,5.24941 -0.67273,3.36645 z m -7.43304,-1.88284 c -1.10844,-2.07115 -1.45486,-7.81875 -0.40815,-6.77205 0.68052,0.68053 2.31575,8.70631 1.77388,8.70631 -0.1818,0 -0.79638,-0.87042 -1.36573,-1.93426 z m -6.29421,-1.39753 c -0.40753,-1.00748 -0.71245,-3.03248 -0.67758,-4.5 l 0.0634,-2.66821 0.97954,2.45316 c 0.53875,1.34923 0.84367,3.37423 0.67759,4.5 -0.28026,1.89976 -0.35521,1.91521 -1.04293,0.21505 z m -6,-1 c -0.40753,-1.00748 -0.72729,-2.80748 -0.71056,-4 0.0277,-1.97598 0.1222,-2.01051 1.06578,-0.38945 0.56946,0.97831 0.88921,2.77831 0.71056,4 -0.29246,1.99999 -0.39862,2.03878 -1.06578,0.38945 z m -5.58308,-4.66821 c 0,-1.375 0.22698,-1.9375 0.50439,-1.25 0.27741,0.6875 0.27741,1.8125 0,2.5 -0.27741,0.6875 -0.50439,0.125 -0.50439,-1.25 z m 58.09685,-33.11052 c 0.30539,-17.81421 0.88027,-33.20073 1.2775,-34.19226 0.54603,-1.36295 1.60611,-1.72891 4.345,-1.5 l 3.62276,0.30278 -0.0333,6.25 c -0.20149,37.7781 -0.62412,57.94932 -1.23427,58.90822 -0.40534,0.63702 -2.49107,1.48728 -4.63496,1.88948 l -3.89797,0.73126 0.55527,-32.38948 z m -41.00474,26.38667 c -3.87538,-0.281 -5.25,-0.78054 -5.25,-1.90786 0,-1.18271 0.68902,-1.37587 3.05456,-0.85631 4.30313,0.94513 25.98671,1.03201 28.69544,0.11498 1.65009,-0.55864 2.25,-0.37455 2.25,0.69043 0,2.2701 -12.60863,3.12913 -28.75,1.95876 z m 32.97917,-2.46365 c 0.61807,-1.85422 2.77083,-2.16176 2.77083,-0.39583 0,0.87083 -0.7125,1.58333 -1.58333,1.58333 -0.87084,0 -1.40521,-0.53438 -1.1875,-1.1875 z m -55.47917,-0.52875 c -1.5125,-0.22913 -2.75,-1.00128 -2.75,-1.7159 0,-0.99089 1.0088,-1.10415 4.25,-0.47713 2.3375,0.4522 4.8125,0.84178 5.5,0.86573 0.6875,0.0239 1.25,0.49355 1.25,1.04355 0,0.98962 -2.92606,1.09025 -8.25,0.28375 z m 21.82785,-5.20186 c -3.25718,-0.32004 -6.0698,-1.03189 -6.25027,-1.58189 -0.2108,-0.64245 6.28643,-1 18.17177,-1 12.89566,0 18.5,0.33647 18.50027,1.11071 7.3e-4,2.13122 -15.88549,2.89947 -30.42177,1.47118 z m -20.46595,-2.16288 c -7.71223,-1.51476 -7.09615,-3.38377 0.77136,-2.34011 3.33786,0.44279 5.11674,1.15546 5.11674,2.04993 0,0.75414 -0.3375,1.32187 -0.75,1.2616 -0.4125,-0.0603 -2.72464,-0.4974 -5.1381,-0.97142 z m 54.11727,-0.10651 c 0.61807,-1.85422 2.77083,-2.16176 2.77083,-0.39583 0,0.87083 -0.7125,1.58333 -1.58333,1.58333 -0.87084,0 -1.40521,-0.53437 -1.1875,-1.1875 z m -31.15,-5.68922 c -4.63145,-0.3428 -8.57921,-1.10407 -8.7728,-1.6917 -0.24172,-0.73374 5.44991,-1.04699 18.16921,-1 14.1129,0.0521 18.52159,0.36594 18.52281,1.31842 9.6e-4,0.74246 -1.31798,1.25289 -3.24839,1.25711 -1.7875,0.004 -6.175,0.17189 -9.75,0.37328 -3.575,0.2014 -10.28937,0.0857 -14.92083,-0.25711 z m 31.92083,-2.62328 c 0,-0.825 0.45,-1.5 1,-1.5 0.55,0 1,0.675 1,1.5 0,0.825 -0.45,1.5 -1,1.5 -0.55,0 -1,-0.675 -1,-1.5 z m -59.25,-0.18933 c -2.57364,-0.67256 -2.13056,-2.31067 0.625,-2.31067 3.83813,0 8.625,1.17937 8.625,2.125 0,0.89201 -6.08012,1.01405 -9.25,0.18567 z m 22.5,-6.04288 c -2.40922,-0.21699 -4.25045,-0.89929 -4.25103,-1.57529 -7.7e-4,-0.88769 2.61916,-1.02788 10.25,-0.54847 11.74683,0.73801 10.75103,0.5661 10.75103,1.85597 0,0.96765 -7.62605,1.08957 -16.75,0.26779 z m 19.75,-0.15116 c 0,-1.20449 3.64524,-2.08654 8.69098,-2.10298 4.65737,-0.0152 6.52177,1.4279 3.04777,2.35901 -3.43174,0.91978 -11.73875,0.7386 -11.73875,-0.25603 z m 17,-1.61663 c 0,-0.825 0.45,-1.5 1,-1.5 0.55,0 1,0.675 1,1.5 0,0.825 -0.45,1.5 -1,1.5 -0.55,0 -1,-0.675 -1,-1.5 z m -58.75,-0.20573 c -3.40974,-0.65675 -2.69091,-2.29612 1,-2.28062 4.1977,0.0176 7.75,0.98156 7.75,2.10298 0,0.88916 -4.57376,0.98202 -8.75,0.17764 z m 29.5,-6.03582 c -5.32035,-0.27574 -6.75,-0.68255 -6.75,-1.92077 0,-1.14112 0.61562,-1.40596 2.25,-0.96797 1.2375,0.33164 4.9875,0.60913 8.33333,0.61663 4.73468,0.0106 6.08334,0.34621 6.08334,1.51366 0,0.825 -0.7125,1.41186 -1.58334,1.30414 -0.87083,-0.10772 -4.62083,-0.35328 -8.33333,-0.54569 z m 12.25,-0.54047 c 0,-1.2256 1.47928,-1.62401 7.00225,-1.88592 5.11308,-0.24247 7.00165,0.005 7,0.91794 -10e-4,0.6875 -1.06444,1.25 -2.36268,1.25 -1.29823,0 -4.44823,0.28617 -7,0.63592 -3.80171,0.52109 -4.63957,0.35532 -4.63957,-0.91794 z m 17,-1.21798 c 0,-0.825 0.45,-1.5 1,-1.5 0.55,0 1,0.675 1,1.5 0,0.825 -0.45,1.5 -1,1.5 -0.55,0 -1,-0.675 -1,-1.5 z m -57.75,-0.2234 c -1.7875,-0.22182 -3.25061,-0.93731 -3.25136,-1.58996 -9.4e-4,-0.81334 1.72927,-1.07888 5.5,-0.84409 3.9004,0.24286 5.50136,0.75214 5.50136,1.75 0,1.40522 -1.13294,1.50522 -7.75,0.68405 z m 42.75,-7.16961 c 0,-1.35899 2.69159,-2.10699 7.58179,-2.10699 3.26063,0 4.41821,0.393 4.41821,1.5 0,1.16667 -1.33333,1.5 -6,1.5 -3.3,0 -6,-0.40186 -6,-0.89301 z m 16.07895,-0.52366 c -0.0434,-1.05416 0.19292,-1.64479 0.52522,-1.3125 0.33229,0.33229 0.36781,1.19479 0.0789,1.91667 -0.31922,0.79773 -0.55618,0.56078 -0.60416,-0.60417 z m -62.07895,-2.19032 c 0,-1.05452 0.5438,-1.39831 1.58179,-1 0.86998,0.33385 3.56998,0.60699 6,0.60699 2.43001,0 4.41821,0.45 4.41821,1 0,0.55556 -2.66667,1 -6,1 -4.84421,0 -6,-0.30956 -6,-1.60699 z m 23.26375,0.88941 c 1.52006,-0.22986 3.77006,-0.22371 5,0.0136 1.22994,0.23736 -0.0137,0.42542 -2.76375,0.41792 -2.75,-0.007 -3.75631,-0.20172 -2.23625,-0.43157 z m 24.98625,-5.9447 c -2.94002,-1.18633 -0.84677,-2.33772 4.25,-2.33772 5.99131,0 7.36775,1.37645 2.375,2.375 -3.50839,0.70168 -4.81185,0.69434 -6.625,-0.0373 z m -26.97917,-0.94189 c 0.33229,-0.33229 1.19479,-0.36782 1.91667,-0.079 0.79773,0.31923 0.56078,0.55619 -0.60417,0.60417 -1.05416,0.0434 -1.64479,-0.19293 -1.3125,-0.52522 z m -20.27083,-2.02364 c 0,-1.3491 0.71122,-1.51408 4.15388,-0.96358 7.16638,1.14596 8.0271,2.52697 1.59612,2.56098 -4.65755,0.0246 -5.75,-0.27886 -5.75,-1.5974 z m 45.63837,-6.87219 c -0.47202,-1.23008 0.49842,-1.5 5.39301,-1.5 4.63877,0 5.96862,0.33421 5.96862,1.5 0,1.14791 -1.26589,1.5 -5.39301,1.5 -3.8713,0 -5.55543,-0.42325 -5.96862,-1.5 z m 15,0 c -0.31658,-0.825 -0.13972,-1.5 0.39301,-1.5 0.53274,0 0.96862,0.675 0.96862,1.5 0,0.825 -0.17686,1.5 -0.39301,1.5 -0.21616,0 -0.65203,-0.675 -0.96862,-1.5 z m -58.9717,-0.16667 c -1.70901,-1.709 -0.1794,-2.3274 5.58333,-2.25725 l 6.25,0.0761 -3.5,1.34784 c -3.89943,1.50167 -7.32268,1.84399 -8.33333,0.83333 z m 14.49122,-14.33333 c 0,-1.375 0.22698,-1.9375 0.50439,-1.25 0.27741,0.6875 0.27741,1.8125 0,2.5 -0.27741,0.6875 -0.50439,0.125 -0.50439,-1.25 z m -16.4823,-14.65542 c -4.25073,-5.35828 -4.45053,-5.87688 -3.19031,-8.28043 3.97529,-7.58185 12.66026,-14.89473 22.51472,-18.95777 7.84032,-3.23259 22.67641,-4.01523 31.20937,-1.64637 7.90958,2.19581 16.33154,7.2334 21.54047,12.88442 7.14998,7.75682 7.15261,7.82029 0.63318,15.24603 l -5.72474,6.52057 -2.33217,-2.51513 c -3.13868,-3.38493 -9.75028,-7.16146 -16.75952,-9.57299 -4.80988,-1.65484 -7.3003,-1.88395 -14.92009,-1.37258 -10.65944,0.71537 -17.65109,3.46918 -24.24909,9.551 l -4.1871,3.85953 -4.53472,-5.71628 z"
         id="path2846" />
    </g>
    <rect
       style="fill:#0000ff;fill-rule:evenodd;stroke:#000000;stroke-width:1.5;stroke-linecap:round;stroke-linejoin:round;stroke-opacity:1;fill-opacity:0;stroke-miterlimit:4;stroke-dasharray:none"
       id="rect2994"
       width="514.28571"
       height="514.28571"
       x="91.428574"
       y="68.076469" />
  </g>
</svg>
